<?xml version="1.0" encoding="UTF-8" standalone="no"?>
<svg xmlns:android="http://schemas.android.com/apk/res/android" height="16" width="16" xmlns="http://www.w3.org/2000/svg">
    <path d="M0,8C0,3.5817 3.5817,0 8,0V0C12.4183,0 16,3.5817 16,8V8C16,12.4183 12.4183,16 8,16V16C3.5817,16 0,12.4183 0,8V8Z" fill="#F1F4FC"/>
    <path d="M2.6666,8.0001a1.3333,1.3333 0,1 0,2.6667 0a1.3333,1.3333 0,1 0,-2.6667 0z" fill="#1B204F"/>
    <path d="M8,8.0001m-1.3333,0a1.3333,1.3333 0,1 1,2.6667 0a1.3333,1.3333 0,1 1,-2.6667 0" fill="#1B204F"/>
    <path d="M10.6667,8.0001a1.3333,1.3333 0,1 0,2.6667 0a1.3333,1.3333 0,1 0,-2.6667 0z" fill="#1B204F"/>
</svg>
