<?xml version="1.0" encoding="UTF-8" standalone="no"?>
<svg xmlns:android="http://schemas.android.com/apk/res/android" height="24" width="24" xmlns="http://www.w3.org/2000/svg">
    <path d="M12,21a8.759,8.759 0,0 0,3.498 -0.703,8.975 8.975,0 0,0 2.865,-1.916 9.038,9.038 0,0 0,1.934 -2.883A8.759,8.759 0,0 0,21 12a8.76,8.76 0,0 0,-0.703 -3.498,8.833 8.833,0 0,0 -1.934,-2.865 8.832,8.832 0,0 0,-2.865 -1.934A8.758,8.758 0,0 0,12 3a8.758,8.758 0,0 0,-3.498 0.703,9.036 9.036,0 0,0 -2.883,1.934 8.975,8.975 0,0 0,-1.916 2.865A8.758,8.758 0,0 0,3 12c0,1.242 0.234,2.408 0.703,3.498a9.186,9.186 0,0 0,1.916 2.883,9.186 9.186,0 0,0 2.883,1.916A8.76,8.76 0,0 0,12 21ZM12.158,4.318c0.926,0.047 1.676,0.328 2.25,0.844 0.574,0.516 0.932,1.219 1.072,2.11 0.012,0.105 0.024,0.263 0.036,0.474 0.011,0.2 0.017,0.399 0.017,0.598v0.703L13.09,9.047l-0.018,-0.826a6.08,6.08 0,0 0,-0.052 -0.739,1.642 1.642,0 0,0 -0.123,-0.386 1.603,1.603 0,0 0,-0.176 -0.246,0.576 0.576,0 0,0 -0.176,-0.194 0.69,0.69 0,0 0,-0.264 -0.105c-0.07,-0.012 -0.199,-0.018 -0.386,-0.018 -0.223,0.012 -0.364,0.03 -0.422,0.053 -0.059,0.023 -0.141,0.094 -0.246,0.21 -0.141,0.153 -0.24,0.347 -0.3,0.58a2.405,2.405 0,0 0,-0.052 0.792c0.047,0.469 0.205,0.908 0.475,1.318 0.28,0.399 0.85,1.032 1.705,1.899 0.785,0.797 1.33,1.418 1.635,1.863 0.304,0.445 0.52,0.938 0.65,1.477 0.07,0.28 0.105,0.673 0.105,1.177 0,0.493 -0.035,0.88 -0.105,1.16 -0.188,0.75 -0.527,1.342 -1.02,1.776 -0.48,0.422 -1.113,0.68 -1.898,0.773a4.396,4.396 0,0 1,-1.67 -0.105c-0.516,-0.152 -0.938,-0.399 -1.266,-0.738a2.788,2.788 0,0 1,-0.668 -1.002c-0.152,-0.399 -0.257,-0.885 -0.316,-1.46 -0.012,-0.21 -0.023,-0.398 -0.035,-0.562 0,-0.164 0.006,-0.264 0.017,-0.299 0.012,-0.047 0.082,-0.076 0.211,-0.088 0.13,-0.011 0.44,-0.017 0.932,-0.017h1.09l0.035,0.598c0.023,0.34 0.058,0.591 0.105,0.755 0.047,0.153 0.123,0.293 0.229,0.422 0.223,0.235 0.521,0.346 0.896,0.334 0.375,-0.023 0.657,-0.17 0.844,-0.44a0.84,0.84 0,0 0,0.106 -0.245c0.046,-0.117 0.076,-0.235 0.088,-0.352a2.272,2.272 0,0 0,-0.018 -0.844,3.353 3.353,0 0,0 -0.299,-0.896 2.239,2.239 0,0 0,-0.404 -0.615c-0.164,-0.188 -0.557,-0.586 -1.178,-1.196 -0.844,-0.843 -1.412,-1.453 -1.705,-1.828a5.05,5.05 0,0 1,-0.95 -2.795,5.747 5.747,0 0,1 0.141,-1.476c0.223,-0.832 0.633,-1.453 1.23,-1.864 0.61,-0.421 1.384,-0.615 2.321,-0.58Z" fill="#D6DCEE"/>
</svg>
