<?xml version="1.0" encoding="UTF-8" standalone="no"?>
<svg xmlns:android="http://schemas.android.com/apk/res/android" height="24" width="24" xmlns="http://www.w3.org/2000/svg">
    <g clip-path="url(#_clippath_0)">
        <path d="M11.9998,3.6669C10.2317,3.6669 8.536,4.3693 7.2858,5.6195C6.0356,6.8697 5.3332,8.5654 5.3332,10.3335C5.3332,12.9153 7.0129,15.4204 8.8548,17.3646C9.7587,18.3187 10.6654,19.0998 11.3471,19.6426C11.6008,19.8446 11.8224,20.0129 11.9998,20.144C12.1773,20.0129 12.3989,19.8446 12.6526,19.6426C13.3343,19.0998 14.241,18.3187 15.1449,17.3646C16.9867,15.4204 18.6665,12.9153 18.6665,10.3335C18.6665,8.5654 17.9641,6.8697 16.7139,5.6195C15.4636,4.3693 13.7679,3.6669 11.9998,3.6669ZM11.9998,21.1669C11.5376,21.8603 11.5374,21.8601 11.5371,21.86L11.5348,21.8584L11.5292,21.8546L11.5101,21.8417C11.4939,21.8307 11.4707,21.8149 11.4411,21.7944C11.3819,21.7534 11.2969,21.6937 11.1897,21.6162C10.9753,21.4614 10.6718,21.2354 10.3089,20.9464C9.5843,20.3694 8.616,19.5359 7.6449,18.5108C5.7367,16.4967 3.6665,13.5852 3.6665,10.3335C3.6665,8.1234 4.5445,6.0038 6.1073,4.441C7.6701,2.8782 9.7897,2.0002 11.9998,2.0002C14.21,2.0002 16.3296,2.8782 17.8924,4.441C19.4552,6.0038 20.3332,8.1234 20.3332,10.3335C20.3332,13.5852 18.263,16.4967 16.3548,18.5108C15.3837,19.5359 14.4154,20.3694 13.6908,20.9464C13.3279,21.2354 13.0244,21.4614 12.81,21.6162C12.7028,21.6937 12.6177,21.7534 12.5585,21.7944C12.5289,21.8149 12.5058,21.8307 12.4896,21.8417L12.4705,21.8546L12.4649,21.8584L12.4632,21.8595C12.4629,21.8597 12.4621,21.8603 11.9998,21.1669ZM11.9998,21.1669L12.4621,21.8603C12.1822,22.0469 11.8171,22.0466 11.5371,21.86L11.9998,21.1669Z" fill="#808AA6" fill-rule="evenOdd"/>
        <path d="M11.9998,8.6669C11.0794,8.6669 10.3332,9.4131 10.3332,10.3335C10.3332,11.254 11.0794,12.0002 11.9998,12.0002C12.9203,12.0002 13.6665,11.254 13.6665,10.3335C13.6665,9.4131 12.9203,8.6669 11.9998,8.6669ZM8.6665,10.3335C8.6665,8.4926 10.1589,7.0002 11.9998,7.0002C13.8408,7.0002 15.3332,8.4926 15.3332,10.3335C15.3332,12.1745 13.8408,13.6669 11.9998,13.6669C10.1589,13.6669 8.6665,12.1745 8.6665,10.3335Z" fill="#808AA6" fill-rule="evenOdd"/>
    </g>
    <defs id="svg-definitions">
        <clipPath id="_clippath_0">
            <path d="M2,2.0002h20v20h-20z"/>
        </clipPath>
    </defs>
</svg>
