<?xml version="1.0" encoding="UTF-8" standalone="no"?>
<svg xmlns:android="http://schemas.android.com/apk/res/android" height="80" width="80" xmlns="http://www.w3.org/2000/svg">
    <path d="M28.279,73.38C14.913,69.464 7.29,61.147 6.933,45.129C6.596,30.004 18.899,18.741 30.947,13.015C46.766,8.137 60.75,9.864 66.268,17.277C74.853,28.81 71.205,45.775 62.395,60.169C54.803,72.571 40.976,77.101 28.279,73.38Z" fill="#F1F4FC" fill-rule="evenOdd"/>
    <path d="M18.257,53.685C19.028,55.235 21.983,58.987 27.641,61.593C34.714,64.851 44.09,67.811 48.696,65.838C52.38,64.258 53.74,60.793 53.959,59.258C53.959,59.258 56.741,59.186 57.897,57.314C58.807,55.715 57.496,53.685 57.496,53.685L24.015,49.328L18.257,53.685Z" fill="#D6DCEE" fill-rule="evenOdd"/>
    <path d="M55.604,54.816C53.307,54.946 51.005,54.947 48.708,54.818C35.105,54.174 26.975,50.538 24.174,44.151C23.741,43.162 22.399,28.618 21.79,27.702C21.74,27.631 21.699,27.554 21.667,27.473C21.816,26.916 22.127,26.414 22.56,26.033C23.495,25.195 24.928,25.115 26.228,25.042C36.025,24.492 45.935,24.015 55.603,25.232C56.13,25.276 56.628,25.497 57.014,25.859C57.401,26.221 57.654,26.702 57.733,27.226C58.477,35.693 58.566,44.205 57.999,52.686C57.924,53.27 57.64,53.808 57.2,54.199C56.76,54.591 56.193,54.81 55.604,54.816Z" fill="#5662DD"/>
    <path d="M49.167,20.432C48.303,29.847 46.155,39.099 42.783,47.931C42.65,48.226 42.426,48.47 42.143,48.627C41.86,48.785 41.535,48.847 41.214,48.805C35.197,48.257 29.227,47.463 23.303,46.423C23.113,46.407 22.928,46.347 22.764,46.25C22.6,46.152 22.459,46.018 22.354,45.859C22.248,45.7 22.18,45.518 22.154,45.329C22.128,45.139 22.146,44.946 22.205,44.764C25.339,36.486 27.412,27.844 28.374,19.045C28.442,18.673 28.651,18.341 28.958,18.12C29.265,17.899 29.646,17.806 30.02,17.861C35.918,18.431 41.839,18.819 47.784,19.025C47.969,19.019 48.154,19.052 48.326,19.121C48.498,19.189 48.654,19.293 48.784,19.425C48.914,19.558 49.015,19.715 49.081,19.889C49.147,20.062 49.176,20.247 49.167,20.432Z" fill="#9CF826"/>
    <path d="M46.445,23.719C45.598,30.462 44.076,37.103 41.901,43.542C41.089,43.617 40.3,43.857 39.583,44.245C38.708,44.724 37.992,45.45 37.525,46.333C34.238,45.993 30.969,45.556 27.718,45.021C27.61,44.461 27.368,43.935 27.012,43.489C26.552,42.936 25.954,42.514 25.278,42.267C27.436,36.093 29.007,29.729 29.97,23.261C30.587,23.073 31.154,22.75 31.631,22.315C32.108,21.881 32.483,21.346 32.728,20.749C32.799,20.561 32.851,20.366 32.883,20.167C36.647,20.516 40.421,20.763 44.205,20.907C44.294,21.739 44.707,22.503 45.354,23.034C45.676,23.323 46.045,23.554 46.445,23.719Z" fill="#65B700"/>
    <path d="M58.868,24.342C53.811,32.815 47.718,40.625 40.729,47.59C40.488,47.819 40.183,47.969 39.855,48.02C39.526,48.071 39.19,48.02 38.891,47.874C33.641,45.293 28.538,42.5 23.583,39.495C23.418,39.404 23.276,39.275 23.17,39.119C23.064,38.964 22.997,38.785 22.972,38.599C22.948,38.412 22.968,38.222 23.031,38.044C23.094,37.867 23.197,37.706 23.334,37.576C29.869,31.043 35.622,23.771 40.477,15.908C40.691,15.584 41.018,15.351 41.394,15.255C41.771,15.158 42.169,15.205 42.513,15.385C47.643,17.951 52.878,20.352 58.22,22.587C58.388,22.647 58.541,22.743 58.668,22.868C58.796,22.993 58.894,23.145 58.956,23.313C59.018,23.48 59.042,23.659 59.027,23.837C59.011,24.015 58.957,24.188 58.868,24.342Z" fill="#9CF826"/>
    <path d="M54.909,26.442C51.093,32.424 46.732,38.041 41.883,43.221C41.096,43.013 40.276,42.965 39.471,43.081C38.441,43.23 37.47,43.65 36.657,44.3C33.81,42.852 31.019,41.319 28.284,39.702C28.426,39.17 28.435,38.611 28.31,38.075C28.138,37.412 27.777,36.813 27.271,36.35C31.99,31.405 36.271,26.061 40.067,20.377C40.732,20.413 41.398,20.312 42.022,20.081C42.647,19.85 43.218,19.494 43.7,19.034C43.847,18.886 43.983,18.726 44.105,18.556C47.385,20.168 50.72,21.699 54.111,23.148C53.976,23.528 53.918,23.932 53.941,24.336C53.963,24.739 54.066,25.134 54.243,25.497C54.407,25.849 54.632,26.169 54.909,26.442Z" fill="#65B700"/>
    <path d="M47.48,33.771C46.532,36.055 43.134,37.094 39.88,36.09C36.627,35.087 34.774,32.449 35.721,30.142C36.668,27.834 40.067,26.818 43.313,27.823C46.558,28.827 48.428,31.487 47.48,33.771Z" fill="#9CF826"/>
    <path d="M62.302,38.933L62.374,41.891C62.452,42.428 62.329,42.975 62.028,43.426C61.471,43.914 60.751,44.176 60.011,44.16C58.659,44.291 57.305,44.375 55.947,44.388C55.697,44.411 55.449,44.333 55.256,44.174C55.063,44.014 54.941,43.784 54.917,43.535C54.868,41.534 54.811,39.542 54.761,37.542C54.767,37.416 54.798,37.293 54.851,37.179C54.904,37.065 54.98,36.963 55.073,36.878C55.166,36.793 55.275,36.728 55.393,36.685C55.512,36.642 55.637,36.623 55.763,36.629L59.428,36.565C60.236,36.454 61.057,36.642 61.736,37.096C61.95,37.348 62.11,37.64 62.208,37.956C62.305,38.272 62.337,38.605 62.302,38.933Z" fill="#5662DD"/>
    <path d="M62.302,38.933L62.374,41.891C62.452,42.428 62.329,42.975 62.028,43.426C61.471,43.914 60.751,44.176 60.011,44.16C58.659,44.291 57.305,44.375 55.947,44.388C55.697,44.411 55.449,44.333 55.256,44.174C55.063,44.014 54.941,43.784 54.917,43.535L54.913,43.472C56.268,43.438 57.623,43.362 58.978,43.244C59.718,43.261 60.438,42.999 60.994,42.51C61.296,42.059 61.419,41.512 61.34,40.975L61.269,38.017C61.28,37.602 61.22,37.188 61.09,36.794C61.328,36.868 61.546,36.992 61.731,37.159C62.149,37.651 62.354,38.29 62.302,38.933Z" fill="#011839" fill-opacity="0.35" stroke-opacity="0.35"/>
    <path d="M58.009,52.725C57.931,53.309 57.645,53.844 57.203,54.234C56.762,54.624 56.195,54.842 55.606,54.847C53.312,54.977 51.012,54.978 48.717,54.849C48.746,50.417 48.778,45.987 48.812,41.56C48.835,38.605 47.639,38.57 44.964,36.811C42.809,35.361 40.826,32.22 38.132,32.096C33.549,31.897 29.142,30.628 24.806,29.379C24.543,29.299 24.279,29.228 24.007,29.141C35.199,31.249 46.674,31.376 57.909,29.518C58.488,37.241 58.521,44.996 58.009,52.725Z" fill="#4C57C6"/>
    <path d="M55.816,34.223C55.772,38.189 55.732,42.156 55.698,46.122C55.683,46.295 55.604,46.455 55.477,46.572C55.35,46.69 55.184,46.756 55.011,46.758C47.615,47.262 40.185,46.665 32.964,44.986C32.833,44.961 32.713,44.897 32.619,44.803C32.526,44.709 32.463,44.588 32.439,44.458C31.952,40.679 31.692,36.874 31.659,33.064C31.669,32.958 31.702,32.857 31.756,32.766C31.81,32.675 31.883,32.597 31.97,32.537C32.057,32.478 32.157,32.438 32.261,32.421C32.366,32.404 32.472,32.41 32.574,32.439C39.947,33.994 47.518,34.386 55.012,33.6C55.106,33.584 55.202,33.587 55.295,33.611C55.388,33.634 55.475,33.676 55.551,33.734C55.626,33.793 55.689,33.867 55.735,33.951C55.781,34.035 55.808,34.127 55.816,34.223Z" fill="#B1B8FD"/>
    <path d="M55.816,34.223C55.772,38.189 55.732,42.156 55.698,46.122C55.683,46.295 55.604,46.455 55.477,46.572C55.35,46.69 55.184,46.756 55.011,46.758C47.615,47.262 40.185,46.665 32.964,44.986C32.833,44.961 32.713,44.897 32.619,44.803C32.526,44.709 32.463,44.588 32.439,44.458C32.116,41.967 31.892,39.469 31.767,36.962C31.873,37.086 32.016,37.174 32.174,37.214C39.395,38.89 46.826,39.485 54.221,38.978C54.394,38.978 54.56,38.914 54.687,38.798C54.814,38.681 54.893,38.522 54.909,38.35C54.923,36.779 54.945,35.206 54.958,33.634L55.013,33.631C55.105,33.615 55.199,33.618 55.29,33.639C55.381,33.661 55.466,33.7 55.541,33.756C55.616,33.811 55.679,33.881 55.727,33.961C55.774,34.041 55.804,34.13 55.816,34.223Z" fill="#011839" fill-opacity="0.35" stroke-opacity="0.35"/>
    <path d="M55.857,40.41C55.812,44.377 55.773,48.347 55.739,52.318C55.724,52.49 55.645,52.651 55.518,52.768C55.391,52.886 55.225,52.952 55.052,52.954C47.656,53.458 40.226,52.861 33.005,51.182C32.875,51.156 32.755,51.091 32.662,50.997C32.568,50.903 32.505,50.784 32.48,50.653C31.993,46.872 31.732,43.064 31.699,39.252C31.711,39.146 31.745,39.044 31.799,38.953C31.854,38.862 31.928,38.784 32.016,38.724C32.104,38.665 32.203,38.625 32.308,38.608C32.413,38.591 32.52,38.598 32.623,38.626C39.995,40.185 47.566,40.58 55.061,39.795C55.154,39.779 55.249,39.783 55.341,39.805C55.433,39.828 55.519,39.87 55.594,39.928C55.669,39.985 55.731,40.058 55.776,40.141C55.822,40.224 55.849,40.316 55.857,40.41Z" fill="#99A2FC"/>
    <path d="M55.857,40.41C55.812,44.377 55.773,48.347 55.739,52.318C55.724,52.49 55.645,52.651 55.518,52.768C55.391,52.886 55.225,52.952 55.052,52.954C47.656,53.458 40.226,52.861 33.005,51.182C32.875,51.156 32.755,51.091 32.662,50.997C32.568,50.903 32.505,50.784 32.48,50.653L32.459,50.285C39.512,51.867 46.755,52.421 53.966,51.931C54.138,51.93 54.304,51.864 54.43,51.747C54.556,51.629 54.633,51.467 54.645,51.295C54.693,47.475 54.74,43.652 54.787,39.826L55.108,39.808C55.287,39.79 55.466,39.843 55.607,39.955C55.747,40.068 55.837,40.232 55.857,40.41Z" fill="#011839" fill-opacity="0.35" stroke-opacity="0.35"/>
    <path d="M50.259,41.447C50.225,45.88 50.193,50.309 50.164,54.736C50.151,55.758 50.14,57.817 50.141,57.832C50.123,59.742 47.094,61.35 44.974,60.942C38.621,59.728 34.07,57.438 28.488,54.553C26.595,53.576 24.653,52.412 23.875,50.586C23.497,49.514 23.345,48.375 23.428,47.241C23.442,41.333 21.858,36.905 21.873,30.997C21.833,30.292 21.052,27.013 22.568,26.032C22.573,26.118 21.948,27.709 26.821,29.03C31.302,30.13 35.842,30.972 40.419,31.551C44.151,32.127 47.189,32.507 48.777,33.926C51.11,36.026 50.282,38.492 50.259,41.447Z" fill="#011839"/>
    <path d="M48.811,41.528C48.776,45.961 48.744,50.39 48.715,54.817C48.71,55.839 48.696,56.853 48.69,57.875C48.672,59.784 46.631,61.218 44.511,60.811C38.227,59.629 32.147,57.547 26.458,54.628C24.565,53.65 22.622,52.487 21.844,50.661C21.466,49.588 21.314,48.45 21.397,47.316C21.412,41.408 21.428,35.497 21.448,29.583C21.423,28.86 21.499,28.136 21.673,27.434C21.704,27.515 21.746,27.591 21.796,27.663C22.405,28.579 23.652,28.972 24.802,29.309C29.179,30.511 33.631,31.418 38.128,32.025C41.861,32.602 44.669,33.23 46.893,34.228C49.816,35.651 48.833,38.573 48.811,41.528Z" fill="#99A2FC"/>
    <path d="M48.893,39.921C39.473,39.421 30.198,37.38 21.437,33.881C21.444,32.458 21.443,31.044 21.45,29.622C21.425,28.899 21.501,28.176 21.675,27.473C21.707,27.554 21.748,27.631 21.798,27.702C22.407,28.618 23.654,29.011 24.805,29.348C29.181,30.55 33.633,31.458 38.131,32.064C41.863,32.641 44.671,33.269 46.895,34.267C49.292,35.398 49.067,37.555 48.893,39.921Z" fill="#B1B8FD"/>
    <path d="M48.811,41.528C48.776,45.961 48.744,50.39 48.715,54.817C48.71,55.839 48.696,56.853 48.69,57.875C48.672,59.784 46.631,61.218 44.511,60.811C38.227,59.629 32.147,57.547 26.458,54.628C24.565,53.65 22.622,52.487 21.844,50.661C21.466,49.588 21.314,48.45 21.397,47.316L21.402,45.297C22.445,46.267 23.632,47.07 24.921,47.676C30.611,50.589 36.691,52.669 42.974,53.851C45.094,54.258 47.135,52.832 47.153,50.914C47.159,49.901 47.173,48.879 47.178,47.857C47.207,43.425 47.239,38.995 47.273,34.568C47.268,34.537 47.266,34.506 47.268,34.474C49.736,35.907 48.833,38.715 48.811,41.528Z" fill="#5662DD"/>
    <path d="M45.267,47.257C45.342,48.604 44.621,49.752 43.658,49.806C42.695,49.86 41.85,48.8 41.774,47.453C41.699,46.106 42.42,44.958 43.383,44.904C44.346,44.85 45.191,45.903 45.267,47.257Z" fill="#011839"/>
    <path d="M48.178,35.429C47.642,34.922 47.018,34.517 46.335,34.236L43.546,33.654L39.392,32.842L34.303,31.886C32.493,31.548 30.778,31.22 29.22,30.899C28.425,30.739 27.71,30.583 27.024,30.409C26.339,30.236 25.717,30.074 25.157,29.886C24.596,29.697 24.106,29.505 23.679,29.316L23.373,29.177L23.098,29.043L22.969,28.979L22.847,28.908L22.621,28.787C22.345,28.629 22.125,28.5 21.986,28.406C21.848,28.312 21.759,28.277 21.752,28.286C21.762,28.426 21.802,28.563 21.869,28.688C22.025,29.01 22.256,29.291 22.543,29.506C23.289,29.971 24.104,30.315 24.957,30.525C25.526,30.729 26.2,30.974 26.885,31.156C27.571,31.337 28.297,31.532 29.076,31.7C30.667,32.043 32.259,32.417 34.085,32.763C35.911,33.108 37.598,33.351 39.168,33.617C40.738,33.882 42.282,34.094 43.472,34.294C44.699,34.455 45.903,34.762 47.058,35.209C47.761,35.562 48.171,35.453 48.178,35.429Z" fill="#ffffff" fill-opacity="0.5" stroke-opacity="0.5"/>
    <path d="M33.074,30.29C33.457,30.349 33.845,30.367 34.232,30.343C34.299,30.276 35.959,28.227 36.21,27.946C36.697,27.385 37.501,26.302 38.023,25.66C38.544,25.019 41.444,20.551 41.471,20.479C41.605,20.204 40.578,20.529 40.552,20.475C40.525,20.422 39.039,22.776 36.968,25.476C34.896,28.177 32.967,30.21 33.074,30.29Z" fill="#ffffff" fill-opacity="0.5" stroke-opacity="0.5"/>
    <path d="M29.213,29.799C29.646,28.781 29.938,27.707 30.079,26.609C30.37,25.56 30.51,24.476 30.495,23.388C30.066,24.408 29.774,25.482 29.629,26.579C29.338,27.627 29.198,28.712 29.213,29.799Z" fill="#ffffff" fill-opacity="0.5" stroke-opacity="0.5"/>
    <path d="M30.652,30.096C30.652,30.096 30.87,29.934 31.19,29.602L31.457,29.32L31.76,28.981C31.981,28.733 32.233,28.46 32.499,28.154L32.919,27.659L33.368,27.124C33.677,26.753 34,26.35 34.337,25.922C35.014,25.099 35.737,24.131 36.466,23.124C37.195,22.117 37.863,21.137 38.457,20.239C38.746,19.791 39.029,19.367 39.281,18.96L39.641,18.382L39.972,17.837C40.181,17.496 40.359,17.179 40.524,16.895L40.738,16.514L40.916,16.182C41.046,15.987 41.143,15.772 41.202,15.545C41.202,15.545 41.017,15.736 40.763,16.112L40.298,16.79L39.69,17.704L39.334,18.226L38.95,18.798L38.093,20.056C37.483,20.938 36.806,21.903 36.077,22.91C35.348,23.917 34.616,24.862 33.988,25.722L33.059,26.937L32.634,27.479L32.238,27.988L31.556,28.859L31.051,29.516C30.766,29.901 30.651,30.08 30.652,30.096Z" fill="#ffffff" fill-opacity="0.5" stroke-opacity="0.5"/>
    <path d="M27.189,29.002C28.076,25.556 28.667,22.041 28.956,18.494C28.071,21.941 27.48,25.456 27.189,29.002Z" fill="#ffffff" fill-opacity="0.5" stroke-opacity="0.5"/>
    <path d="M54.891,33.827C53.904,33.849 52.92,33.933 51.943,34.078C50.426,34.203 49.281,34.094 49.257,34.229C49.504,34.511 49.843,34.695 50.214,34.749C50.276,34.745 51.711,34.846 52.11,34.815C53.116,34.775 54.085,34.43 54.891,33.827Z" fill="#ffffff" fill-opacity="0.5" stroke-opacity="0.5"/>
    <path d="M54.769,39.922C53.909,39.918 53.05,40 52.206,40.167C51.609,40.187 51.014,40.247 50.425,40.346C50.541,40.526 50.711,40.665 50.911,40.743C51.368,40.849 51.841,40.865 52.304,40.79C52.803,40.715 53.939,40.526 54.255,40.422C54.372,40.38 54.478,40.314 54.567,40.228C54.655,40.141 54.724,40.037 54.769,39.922Z" fill="#ffffff" fill-opacity="0.5" stroke-opacity="0.5"/>
    <path d="M58.649,43.263C59.22,43.23 59.308,41.717 59.296,39.966C59.285,38.215 59.312,36.886 58.619,36.862C58.427,37.901 58.37,38.96 58.451,40.014C58.382,41.101 58.448,42.192 58.649,43.263Z" fill="#ffffff" fill-opacity="0.5" stroke-opacity="0.5"/>
    <path d="M21.384,48.055C21.441,46.551 21.32,36.275 21.328,36.275C21.33,36.238 21.328,36.201 21.322,36.165C21.29,35.593 21.32,35.018 21.328,34.444C21.335,33.871 21.328,33.337 21.336,32.779L21.339,31.993L21.326,30.077C21.315,29.61 21.329,29.142 21.365,28.676C21.403,28.031 21.563,27.399 21.834,26.812C22.003,26.49 22.239,26.209 22.527,25.988C23.097,25.552 23.766,25.266 24.475,25.156C24.898,25.078 25.326,25.028 25.755,25.005L27.321,24.917C27.47,24.909 27.47,24.909 27.493,24.766C27.622,23.974 27.742,23.181 27.847,22.39C27.952,21.598 28.029,21.013 28.116,20.324C28.155,20.039 28.178,19.756 28.21,19.479C28.222,19.325 28.242,19.171 28.271,19.02C28.336,18.731 28.482,18.467 28.692,18.258C28.901,18.049 29.165,17.903 29.454,17.838C29.684,17.782 29.923,17.768 30.158,17.798L31.856,17.962L33.727,18.125L35.392,18.259L37.199,18.393L38.468,18.479C38.735,18.464 38.735,18.464 38.874,18.292L40.274,16.076C40.373,15.917 40.488,15.768 40.618,15.633C40.829,15.42 41.091,15.265 41.378,15.182C41.425,15.179 41.48,15.176 41.501,15.128L41.947,15.103C41.947,15.103 42.018,15.099 42.057,15.096C42.267,15.13 42.472,15.192 42.664,15.282L42.947,15.416C46.314,17.097 49.727,18.704 53.186,20.238C54.798,20.965 56.435,21.674 58.097,22.367C58.267,22.434 58.432,22.514 58.59,22.606C58.75,22.697 58.889,22.819 59,22.965C59.111,23.112 59.191,23.28 59.235,23.458C59.279,23.637 59.286,23.822 59.255,24.003C59.225,24.185 59.158,24.358 59.058,24.512L58.065,26.139L57.864,26.472C57.842,26.497 57.828,26.527 57.823,26.559C57.818,26.591 57.822,26.625 57.835,26.655C57.87,26.737 57.899,26.822 57.92,26.909C57.969,27.122 58,27.338 58.011,27.556C58.074,28.668 58.191,29.777 58.261,30.881C58.33,31.984 58.377,32.956 58.436,34.013C58.466,34.545 58.496,35.078 58.524,35.579C58.539,35.845 58.554,36.111 58.568,36.362C58.572,36.432 58.573,36.448 58.667,36.443L59.45,36.399C59.779,36.381 60.107,36.362 60.441,36.422C60.711,36.439 60.978,36.49 61.235,36.574C61.549,36.66 61.831,36.835 62.048,37.078C62.265,37.321 62.408,37.621 62.459,37.943C62.454,38 62.457,38.058 62.468,38.115L62.556,39.681C62.548,39.728 62.55,39.777 62.564,39.822C62.573,39.987 62.582,40.151 62.592,40.315C62.626,40.926 62.66,41.529 62.647,42.143C62.653,42.457 62.607,42.77 62.51,43.069C62.357,43.44 62.067,43.737 61.701,43.901L61.432,44.018C61.089,44.138 60.732,44.216 60.369,44.25L59.062,44.323L58.717,44.343C58.623,44.348 58.615,44.348 58.613,44.443L58.599,45.033C58.612,45.276 58.626,45.526 58.585,45.772C58.607,46.171 58.558,46.559 58.551,46.984L58.516,48.046C58.495,48.511 58.474,48.975 58.446,49.448C58.417,49.921 58.408,50.322 58.385,50.756C58.354,51.315 58.315,51.883 58.284,52.443C58.274,52.758 58.204,53.069 58.076,53.357C57.869,53.781 57.555,54.142 57.164,54.406C56.773,54.669 56.32,54.825 55.85,54.857C55.576,54.872 55.294,54.888 55.02,54.904C54.237,54.947 53.454,54.991 52.667,54.965L51.882,54.97C51.882,54.97 51.819,54.973 51.803,54.974C51.788,54.975 50.368,55.015 50.417,55.052C50.181,56.432 50.738,58.38 48.647,59.911C47.072,61.382 43.768,60.735 41.224,60.328C35.834,59.617 28.222,56.1 24.285,53.422C21.157,51.579 21.278,50.928 21.384,48.055ZM21.725,32.011L21.748,32.418C21.772,32.841 21.749,33.266 21.741,33.691C21.736,33.73 21.747,33.771 21.77,33.803C21.794,33.835 21.829,33.857 21.868,33.864L21.981,33.913C22.704,34.194 23.434,34.475 24.173,34.748L25.776,35.318C25.912,35.366 32.181,37.473 33.519,37.798C35.787,38.331 37.759,38.88 40.117,39.329C41.573,39.664 42.641,39.793 44.179,40.186C44.975,40.369 48.142,40.812 48.128,40.561C48.163,40.064 48.13,38.495 48.126,38C48.146,37.433 48.088,36.865 47.952,36.313C47.775,35.875 47.482,35.492 47.105,35.206C46.863,34.991 46.588,34.815 46.29,34.686C45.965,34.52 45.632,34.371 45.291,34.239C44.275,33.926 43.241,33.678 42.193,33.494C40.871,33.175 39.968,33.03 38.613,32.823C37.258,32.616 35.739,32.285 34.359,32.048C31.909,31.636 29.756,31.081 27.359,30.493C26.363,30.25 25.403,29.927 24.427,29.628C23.971,29.459 23.525,29.264 23.091,29.043C22.72,28.875 21.804,28.236 21.789,28.378C21.773,28.52 21.757,28.654 21.743,28.82C21.713,29.136 21.765,29.228 21.72,29.544C21.714,30.409 21.726,31.194 21.723,31.979L21.725,32.011ZM33.102,30.226C33.165,30.252 33.232,30.267 33.301,30.269L33.916,30.321L35.344,30.43C35.532,30.419 35.517,30.42 35.572,30.291C35.821,29.609 36.263,29.014 36.843,28.578C37.333,28.195 37.885,27.899 38.475,27.701C39.525,27.348 40.639,27.229 41.739,27.353C42.901,27.464 44.027,27.812 45.049,28.377C45.903,28.83 46.64,29.474 47.204,30.259C47.248,30.328 47.298,30.388 47.333,30.456C47.345,30.477 47.363,30.493 47.385,30.503C47.407,30.513 47.431,30.517 47.454,30.513L48.825,30.436C49.843,30.378 50.866,30.274 51.882,30.178L52.289,30.155C52.315,30.153 52.34,30.144 52.362,30.131C52.385,30.117 52.404,30.099 52.418,30.077L52.462,30.02C53.228,28.929 53.967,27.814 54.678,26.674C54.765,26.536 54.773,26.551 54.664,26.424C54.303,26.032 54.046,25.556 53.917,25.039C53.788,24.522 53.79,23.98 53.925,23.465C53.969,23.281 53.963,23.305 53.794,23.229C50.628,21.877 47.508,20.447 44.433,18.938L44.311,18.874C44.297,18.865 44.28,18.86 44.264,18.861C44.246,18.862 44.23,18.869 44.217,18.879L44.114,18.995C43.928,19.211 43.717,19.405 43.486,19.572C42.617,20.233 41.556,20.593 40.465,20.598C40.222,20.612 40.277,20.609 40.152,20.765C38.652,23.017 37.048,25.22 35.37,27.38C34.634,28.278 33.962,29.172 33.234,30.053C33.18,30.102 33.135,30.16 33.102,30.226ZM37.067,30.883C37.136,30.907 37.208,30.924 37.282,30.934L41.076,31.507C42.209,31.679 43.334,31.851 44.464,32.102C45.233,32.24 45.992,32.431 46.735,32.674C47.524,32.917 48.26,33.308 48.905,33.825C48.965,33.874 49.043,33.898 49.121,33.891L49.99,33.842C50.898,33.792 51.807,33.741 52.715,33.69C53.396,33.651 54.07,33.614 54.747,33.505L55.131,33.483C55.203,33.472 55.277,33.467 55.35,33.471C55.541,33.49 55.719,33.574 55.854,33.71C55.989,33.846 56.073,34.024 56.091,34.215C56.097,34.325 56.103,34.434 56.11,34.552C56.103,35.275 56.096,35.99 56.097,36.713L56.089,37.404C56.081,37.955 56.072,38.505 56.072,39.055C56.088,39.353 56.058,39.645 56.059,39.944C56.047,40.006 56.05,40.071 56.069,40.131C56.12,40.232 56.145,40.344 56.142,40.457C56.153,40.653 56.164,40.841 56.135,41.031L56.107,43.476C56.101,44.199 56.094,44.922 56.095,45.637L56.087,46.336C56.077,46.847 56.074,47.358 56.065,47.909L56.055,49.394C56.083,49.895 56.04,50.392 56.036,50.888C56.033,51.383 56.034,51.822 56.028,52.286C56.039,52.338 56.042,52.39 56.037,52.443C56.003,52.64 55.901,52.82 55.75,52.952C55.598,53.084 55.406,53.159 55.206,53.165L54.845,53.185C54.007,53.232 53.162,53.28 52.324,53.327L50.606,53.368C50.504,53.374 50.488,53.375 50.486,53.469C50.507,53.845 50.483,54.255 50.471,54.601L50.475,54.671C50.478,54.726 50.479,54.75 50.558,54.761C50.687,54.797 50.82,54.813 50.954,54.81C51.645,54.818 52.337,54.826 53.035,54.811L54.205,54.792C54.722,54.763 55.238,54.734 55.771,54.704C55.926,54.689 56.079,54.662 56.23,54.624C56.685,54.527 57.098,54.289 57.409,53.942C57.72,53.596 57.913,53.159 57.96,52.696C57.946,52.438 57.986,52.176 58.002,51.908C58.026,51.483 58.057,51.065 58.081,50.647C58.104,50.229 58.118,49.773 58.14,49.332C58.163,48.891 58.185,48.308 58.201,47.757C58.182,47.413 58.225,47.065 58.237,46.718C58.25,46.372 58.261,45.884 58.278,45.475L58.298,44.162C58.27,43.661 58.313,43.156 58.316,42.653C58.319,42.15 58.319,41.443 58.309,40.846C58.265,40.063 58.303,39.339 58.292,38.593C58.282,37.847 58.256,37.102 58.23,36.357C58.167,35.246 58.105,34.126 58.089,33.011C58.058,32.463 58.028,31.915 57.997,31.367C57.966,30.819 57.941,30.364 57.912,29.855C57.904,29.706 57.904,29.706 57.724,29.724L57.583,29.732L56.711,29.868L55.285,30.073L53.522,30.298L51.82,30.48C50.883,30.579 49.944,30.648 48.998,30.717C47.917,30.777 46.836,30.838 45.756,30.898L43.795,30.953L42.886,31.004L41.189,30.997L40.081,30.981L38.609,30.938L37.294,30.878C37.219,30.863 37.141,30.865 37.067,30.883ZM52.896,30.058L53.029,30.051L53.515,30.023L55.215,29.81C55.254,29.808 55.291,29.797 55.324,29.778C55.358,29.758 55.385,29.73 55.405,29.697C55.425,29.659 55.449,29.623 55.478,29.591C56.406,28.204 57.299,26.802 58.157,25.388L58.775,24.363C58.857,24.233 58.91,24.086 58.93,23.933C58.95,23.78 58.936,23.625 58.89,23.478C58.843,23.331 58.765,23.196 58.661,23.082C58.557,22.968 58.43,22.879 58.287,22.819L57.804,22.603C57.563,22.506 57.322,22.418 57.089,22.313C53.94,20.981 50.829,19.585 47.757,18.123C46.046,17.313 44.348,16.489 42.662,15.652C42.553,15.595 42.439,15.546 42.324,15.506C42.023,15.401 41.696,15.403 41.397,15.51C41.19,15.59 41.003,15.716 40.852,15.879C40.719,16.035 40.6,16.202 40.495,16.378C40.38,16.573 40.274,16.775 40.151,16.963C37.812,20.689 35.262,24.279 32.513,27.713C31.992,28.363 31.462,28.998 30.941,29.648C30.905,29.682 30.872,29.721 30.845,29.763C30.845,29.763 30.848,29.818 30.849,29.826L30.99,29.818L32.419,30.099C32.657,30.14 32.611,30.159 32.766,29.977C35.304,26.909 37.683,23.713 39.896,20.402C40.019,20.215 40.018,20.207 40.263,20.217C40.619,20.227 40.976,20.194 41.325,20.118C42.361,19.932 43.294,19.374 43.947,18.549C43.972,18.514 43.999,18.481 44.028,18.45C44.061,18.426 44.099,18.411 44.14,18.409C44.18,18.407 44.221,18.417 44.255,18.437L44.376,18.493L45.047,18.817C48.035,20.273 51.061,21.656 54.125,22.966L54.286,23.044C54.313,23.058 54.336,23.08 54.35,23.107C54.364,23.135 54.369,23.166 54.365,23.196C54.365,23.196 54.37,23.275 54.333,23.316C54.256,23.536 54.211,23.766 54.198,23.999C54.163,24.403 54.214,24.81 54.347,25.192C54.481,25.575 54.695,25.924 54.975,26.218L55.108,26.352C55.138,26.38 55.156,26.418 55.159,26.459C55.161,26.5 55.147,26.54 55.12,26.571L55.012,26.742C54.353,27.79 53.668,28.829 52.956,29.858C52.917,29.918 52.896,29.987 52.896,30.058ZM50.493,47.019C50.523,47.56 50.483,48.096 50.474,48.639L50.465,50.163C50.483,50.476 50.5,50.79 50.463,51.106C50.456,51.68 50.457,52.261 50.451,52.842L50.456,52.944C50.457,52.958 50.462,52.97 50.472,52.98C50.481,52.989 50.493,52.995 50.506,52.996L50.585,52.992L52.201,52.964L54.903,52.813C55.002,52.819 55.102,52.814 55.201,52.796C55.308,52.782 55.407,52.731 55.481,52.653C55.555,52.574 55.6,52.472 55.608,52.365C55.611,52.27 55.605,52.176 55.592,52.083L55.621,49.646L55.649,47.201C55.66,46.415 55.66,45.583 55.67,44.773L55.707,42.642L55.715,41.95L55.731,40.543C55.733,40.509 55.731,40.475 55.725,40.441C55.707,40.321 55.645,40.211 55.55,40.134C55.456,40.057 55.336,40.017 55.215,40.022L55.011,40.034C54.51,40.062 54.011,40.129 53.503,40.173C52.821,40.211 52.132,40.25 51.443,40.289L50.66,40.333C50.582,40.337 50.566,40.338 50.563,40.417C50.547,40.54 50.538,40.664 50.536,40.787L50.504,42.313C50.501,43.099 50.495,43.83 50.498,44.584L50.492,45.315L50.493,47.019ZM28.813,29.382L28.85,29.215C28.974,28.611 29.097,28.015 29.213,27.412C29.438,26.244 29.637,25.031 29.801,23.899C29.792,23.726 29.86,23.55 29.882,23.375C29.884,23.337 29.899,23.299 29.924,23.27C29.95,23.24 29.984,23.219 30.022,23.211L30.153,23.164C30.794,22.956 31.372,22.589 31.833,22.097C32.295,21.606 32.624,21.006 32.792,20.353L32.788,20.282C32.796,20.245 32.818,20.212 32.848,20.189C32.878,20.166 32.915,20.154 32.953,20.155L33.134,20.145L34.041,20.22L35.62,20.359C36.149,20.4 36.677,20.434 37.198,20.483C37.245,20.492 37.293,20.486 37.336,20.465C37.379,20.444 37.413,20.41 37.435,20.367L37.826,19.78L38.354,18.965L38.434,18.842C38.434,18.842 38.43,18.78 38.383,18.775L36.45,18.632L34.722,18.501L32.82,18.34L30.957,18.178C30.625,18.141 30.302,18.112 29.971,18.092C29.767,18.072 29.562,18.1 29.371,18.174C29.18,18.247 29.009,18.364 28.871,18.515C28.715,18.672 28.616,18.876 28.589,19.096C28.6,19.292 28.549,19.499 28.521,19.697C28.415,20.614 28.302,21.532 28.173,22.45C28.027,23.503 27.858,24.549 27.683,25.62C27.507,26.69 27.299,27.754 27.075,28.796L27.081,28.898C27.081,28.898 27.084,28.961 27.132,28.966L27.241,28.96L28.619,29.299C28.676,29.337 28.743,29.355 28.811,29.351L28.813,29.382ZM22.451,26.597C22.388,26.6 22.369,26.68 22.332,26.729C22.189,26.978 22.088,27.249 22.032,27.531C22.015,27.569 22.007,27.61 22.009,27.651C22.011,27.691 22.024,27.731 22.045,27.766C22.201,27.985 22.392,28.176 22.611,28.332C22.956,28.576 23.331,28.774 23.728,28.921C24.029,29.038 24.336,29.139 24.648,29.223C27.204,29.967 29.814,30.567 32.45,31.063C34.474,31.437 36.511,31.763 38.547,32.065C39.728,32.25 40.925,32.442 42.075,32.652C43.395,32.917 44.694,33.277 45.961,33.73C46.44,33.902 46.904,34.112 47.348,34.36C47.77,34.59 48.139,34.905 48.431,35.287C48.723,35.668 48.932,36.107 49.043,36.574C49.146,36.993 49.2,37.422 49.201,37.854C49.207,38.611 49.174,39.368 49.101,40.122C49.077,40.532 49.043,40.91 49.036,41.343C49.023,41.964 49.019,42.585 49.015,43.206L49.011,44.824L49.004,45.532C49.034,46.072 48.994,46.616 48.993,47.166C48.993,47.716 48.988,48.196 48.979,48.738L48.96,50.923L48.954,52.494C48.97,52.769 48.985,53.05 48.938,53.328C48.891,53.606 48.937,54.012 48.941,54.357C48.885,55.765 48.901,57.174 48.989,58.58C49.243,58.621 49.579,58.17 49.723,57.667C49.864,56.644 49.951,55.614 49.982,54.581C49.982,54.581 49.98,54.534 49.979,54.511C49.955,54.096 49.987,53.678 49.987,53.253L49.999,51.375L50.02,48.805L50.031,46.904L50.052,44.334L50.066,42.063C50.054,41.843 50.041,41.624 50.029,41.405C50.042,40.666 50.104,39.932 50.156,39.19C50.19,38.725 50.201,38.257 50.188,37.791C50.18,37.282 50.11,36.777 49.978,36.286C49.717,35.395 49.194,34.603 48.475,34.014C48.039,33.667 47.552,33.389 47.031,33.191C46.602,33.021 46.164,32.875 45.718,32.754C44.716,32.493 43.7,32.287 42.675,32.139L37.835,31.413C35.902,31.121 33.977,30.844 32.062,30.457C30.308,30.123 28.566,29.749 26.86,29.295C26.19,29.109 25.532,28.883 24.889,28.62C24.386,28.433 23.902,28.197 23.444,27.916C23.218,27.763 23.008,27.588 22.817,27.393C22.607,27.182 22.454,26.92 22.374,26.632C22.394,26.624 22.412,26.611 22.424,26.594C22.437,26.576 22.445,26.556 22.447,26.534L22.451,26.597ZM29.209,29.438C29.212,29.501 29.213,29.525 29.214,29.54L29.334,29.573L30.169,29.754C30.368,29.798 30.338,29.823 30.47,29.658C32.801,26.867 34.996,23.99 37.056,21.025L37.128,20.911C37.128,20.911 37.125,20.856 37.124,20.848L36.54,20.802L34.813,20.672L33.234,20.54C33.148,20.545 33.132,20.546 33.112,20.602C33.092,20.658 33.116,20.673 33.118,20.704C32.918,21.37 32.545,21.971 32.037,22.445C31.566,22.895 31.008,23.244 30.398,23.472C30.356,23.483 30.318,23.506 30.289,23.538C30.26,23.571 30.241,23.611 30.235,23.654C30.174,24.098 30.104,24.534 30.035,24.977C29.845,26.213 29.607,27.444 29.362,28.676C29.303,28.875 29.255,29.137 29.205,29.376L29.209,29.438ZM49.377,34.27L49.664,34.615C50.148,35.255 50.461,36.008 50.572,36.803C50.674,37.421 50.709,38.048 50.677,38.674C50.699,39.066 50.635,39.462 50.61,39.848C50.612,39.903 50.615,39.95 50.618,40.005C50.619,40.018 50.625,40.029 50.634,40.037C50.643,40.046 50.655,40.05 50.668,40.049L50.746,40.045L51.819,39.985L52.947,39.922C53.597,39.885 54.239,39.849 54.877,39.743C55.116,39.702 55.362,39.718 55.594,39.789L55.641,39.786C55.643,39.723 55.639,39.661 55.631,39.598C55.636,38.985 55.648,38.372 55.653,37.759C55.658,37.146 55.659,36.313 55.665,35.59C55.65,35.316 55.681,35.039 55.681,34.757C55.673,34.616 55.666,34.475 55.658,34.334C55.649,34.214 55.596,34.101 55.508,34.019C55.421,33.936 55.305,33.89 55.185,33.889C55.07,33.88 54.954,33.886 54.84,33.908L54.621,33.92C53.783,33.967 52.94,34.062 52.103,34.125C51.266,34.187 50.396,34.22 49.542,34.268C49.489,34.241 49.432,34.22 49.374,34.207L49.377,34.27ZM62.238,40.445L62.208,39.921C62.184,39.49 62.16,39.059 62.136,38.629C62.127,38.386 62.088,38.145 62.017,37.913C61.938,37.637 61.779,37.39 61.56,37.204C61.342,37.018 61.073,36.9 60.788,36.866C60.592,36.832 60.394,36.809 60.195,36.797C59.879,36.776 59.558,36.794 59.244,36.788L58.696,36.818C58.547,36.827 58.547,36.827 58.554,36.952C58.573,37.297 58.593,37.649 58.612,37.994C58.672,39.066 58.654,40.136 58.651,41.204C58.645,41.794 58.654,42.375 58.647,42.956C58.663,43.246 58.64,43.538 58.633,43.829C58.638,43.907 58.642,43.986 58.646,44.056C58.65,44.127 58.649,44.111 58.712,44.107L58.774,44.104C59.401,44.069 60.027,44.034 60.641,43.921C60.888,43.888 61.129,43.827 61.362,43.739C61.552,43.672 61.724,43.563 61.864,43.418C62.005,43.274 62.11,43.099 62.172,42.908L62.223,42.716C62.272,42.457 62.292,42.192 62.281,41.928L62.238,40.445ZM38.395,30.612C39.056,30.646 39.837,30.704 39.971,30.705L41.221,30.721L42.093,30.727L44.605,30.696L45.012,30.673C45.6,30.64 46.179,30.608 46.766,30.575C46.813,30.572 46.86,30.569 46.907,30.567C46.887,30.506 46.851,30.451 46.804,30.408C46.385,29.848 45.869,29.369 45.279,28.993C44.028,28.188 42.579,27.745 41.091,27.711C40.392,27.681 39.691,27.758 39.014,27.938C38.317,28.116 37.664,28.437 37.096,28.878C36.596,29.256 36.206,29.76 35.968,30.34C35.971,30.395 35.911,30.445 35.922,30.507C36.744,30.565 37.568,30.58 38.391,30.549L38.395,30.612ZM26.15,25.329C25.565,25.351 24.983,25.42 24.41,25.536C24.029,25.61 23.661,25.736 23.316,25.912C23.179,25.986 23.047,26.07 22.921,26.162C22.898,26.177 22.879,26.197 22.865,26.221C22.851,26.245 22.844,26.272 22.843,26.3C22.83,26.423 22.837,26.547 22.863,26.668C22.983,26.961 23.173,27.22 23.416,27.422C23.722,27.677 24.059,27.893 24.418,28.065C25.085,28.391 25.778,28.66 26.49,28.868C26.753,28.94 26.706,28.935 26.749,28.728C26.978,27.623 27.183,26.52 27.349,25.419C27.351,25.39 27.349,25.361 27.344,25.332C27.344,25.332 27.341,25.27 27.294,25.272L26.08,25.34L26.15,25.329ZM21.736,36.268C21.807,36.264 21.942,50.019 22.012,50.007C22.303,52.395 34.108,58.245 39.7,59.353C44.879,60.374 46.211,60.166 46.988,59.73C47.764,59.293 47.928,58.279 48.04,56.921C48.462,52.121 48.093,41.906 48.116,41.897C48.139,41.888 36.562,39.819 32.04,38.455C28.574,37.295 25.187,35.91 21.901,34.31C21.854,34.313 21.803,34.245 21.734,34.272C21.665,34.3 21.7,36.05 21.716,36.19C21.721,36.195 21.727,36.2 21.733,36.205L21.736,36.268ZM55.887,29.733C55.965,29.741 56.044,29.736 56.121,29.72L57.555,29.506C57.86,29.489 57.821,29.491 57.798,29.225C57.767,28.669 57.736,28.106 57.704,27.55C57.697,27.417 57.69,27.291 57.682,27.158C57.675,27.025 57.68,27.111 57.617,27.115C57.084,27.977 56.512,28.834 55.955,29.698C55.874,29.64 55.882,29.655 55.883,29.671L55.887,29.733Z" fill="#011839"/>
    <path d="M45.543,47.281C45.569,47.763 45.497,48.245 45.332,48.699C45.245,48.941 45.119,49.168 44.961,49.372C44.778,49.597 44.543,49.775 44.276,49.89C44.077,49.979 43.861,50.024 43.644,50.02C43.426,50.015 43.212,49.963 43.017,49.866C42.84,49.777 42.677,49.662 42.535,49.524C42.232,49.238 42.002,48.885 41.864,48.493C41.578,47.733 41.579,46.896 41.866,46.136C41.962,45.864 42.111,45.613 42.303,45.397C42.478,45.19 42.697,45.025 42.944,44.913C43.129,44.829 43.33,44.783 43.534,44.78C43.738,44.777 43.941,44.815 44.129,44.894C44.436,45.02 44.705,45.224 44.908,45.486C45.135,45.777 45.303,46.109 45.403,46.464C45.48,46.73 45.527,47.005 45.543,47.281ZM45.167,47.302C45.161,47.193 45.153,47.044 45.145,46.903C45.085,46.553 44.957,46.218 44.768,45.918C44.644,45.717 44.485,45.54 44.298,45.395C44.167,45.298 44.02,45.226 43.862,45.184C43.733,45.144 43.598,45.13 43.463,45.144C43.329,45.159 43.199,45.2 43.082,45.267C42.92,45.347 42.777,45.46 42.66,45.597C42.471,45.822 42.326,46.081 42.231,46.359C42.119,46.699 42.067,47.055 42.078,47.413C42.084,47.877 42.198,48.333 42.412,48.745C42.532,48.985 42.699,49.197 42.903,49.369C43.045,49.49 43.207,49.585 43.382,49.649C43.639,49.736 43.92,49.72 44.165,49.605C44.288,49.547 44.4,49.469 44.498,49.374C44.732,49.151 44.903,48.871 44.994,48.561C45.128,48.145 45.186,47.708 45.166,47.271L45.167,47.302Z" fill="#011839"/>
    <path d="M45.186,71.247C43.71,70.396 42.209,69.577 40.746,68.705C38.736,67.539 38.431,67.147 39.357,65.078C40.337,63.998 41.41,62.992 42.566,62.068L52.754,53.94C53.557,53.168 55.837,51.728 56.625,51.922C59.255,52.45 57.895,54.98 58.376,57.528C60.451,57.046 62.342,55.514 63.932,54.383C64.091,54.201 64.198,53.985 64.243,53.755C65.419,50.441 65.75,46.919 65.21,43.459C64.898,41.428 64.467,39.402 64.144,37.37C64.011,36.507 63.846,35.296 65.288,35.483C66.245,35.602 67.173,35.878 68.025,36.298L67.788,36.9C66.886,36.493 65.679,36.27 64.678,36.324C66.278,42.141 66.825,47.692 65.002,53.481C66.925,52.187 68.417,50.433 69.316,48.409C70.165,46.424 70.773,44.359 71.129,42.25C71.476,42.481 71.355,42.834 71.332,43.127C71.288,45.438 70.701,47.71 69.609,49.789C68.518,51.868 66.991,53.752 65.049,55.223C63.465,56.534 61.555,57.712 59.606,58.52C57.833,59.188 56.975,58.546 57.068,56.802C57.299,55.755 57.348,54.756 57.2,53.693C57.226,53.043 56.894,52.868 56.328,53.063C55.578,53.345 54.932,53.71 54.313,54.187C50.066,57.275 46.216,60.559 42.267,63.931C39.241,66.503 39.23,67.071 43.05,68.742C47.888,71.502 52.892,73.974 58.149,75.986C58.53,75.036 58.596,73.956 58.384,72.96C58.102,70.495 58.714,69.689 61.154,68.7C61.591,68.547 62.016,68.364 62.424,68.153C67.654,65.441 71.582,61.688 73.402,56.257L73.711,56.269L73.596,57.35L73.594,57.415C73.021,58.662 72.57,59.861 71.892,61.06C70.813,63.115 69.298,64.952 67.435,66.465C65.572,67.978 63.397,69.138 61.036,69.879C60.577,69.987 60.175,70.239 59.901,70.591C59.626,70.943 59.496,71.373 59.533,71.805C59.495,72.759 59.648,73.71 59.598,74.663C59.522,76.581 58.659,77.057 56.75,76.341C55.579,75.915 54.494,75.383 53.386,74.873L45.186,71.247Z" fill="#0B0603"/>
    <path d="M67.559,36.659L68.001,36.318C72.374,38.131 74.475,41.493 74.974,45.692C75.315,49.678 74.821,53.681 73.52,57.488C73.425,57.484 73.432,56.399 73.326,56.395C74.1,53.573 74.471,50.669 74.429,47.754C74.462,44.692 73.318,41.708 71.198,39.322C70.534,37.776 68.773,37.532 67.559,36.659Z" fill="#100605"/>
    <path d="M71.21,39.3C73.331,41.687 74.474,44.671 74.441,47.733C74.484,50.647 74.113,53.552 73.338,56.374C71.518,61.805 67.59,65.557 62.359,68.27C61.952,68.48 61.527,68.663 61.09,68.817C58.673,69.806 58.133,70.545 58.414,73.053C58.625,74.049 58.535,75.078 58.153,76.028C52.896,74.016 47.824,71.618 42.986,68.859C43.748,67.651 44.94,66.646 45.176,65.189C45.32,64.533 45.612,63.913 46.033,63.367C47.766,60.605 50.111,58.206 52.921,56.324C54.335,55.414 55.526,54.18 57.211,53.639C57.359,54.701 57.316,55.778 57.084,56.825C57.015,58.57 57.836,59.157 59.61,58.489C61.559,57.681 63.357,56.603 64.942,55.292C66.883,53.819 68.452,51.98 69.541,49.899C70.631,47.818 71.216,45.544 71.256,43.232C71.268,42.939 71.401,42.586 71.053,42.355C71.142,41.317 71.17,40.308 71.21,39.3Z" fill="#FF5823"/>
    <path d="M71.21,39.301C71.17,40.308 71.13,41.317 71.09,42.325C70.734,44.433 70.126,46.499 69.277,48.484C68.379,50.507 66.886,52.262 64.964,53.556C66.788,47.712 66.245,41.937 64.643,36.174C65.663,36.084 66.692,36.28 67.592,36.736C68.202,36.945 70.534,37.776 71.21,39.301Z" fill="#C63001"/>
    <path d="M57.248,53.597C55.563,54.138 54.373,55.372 52.958,56.282C50.149,58.164 47.803,60.563 46.07,63.325C45.649,63.871 45.357,64.491 45.214,65.147C44.978,66.604 43.785,67.609 43.024,68.817C39.203,67.167 39.095,66.577 42.121,64.004C46.07,60.633 50.019,57.272 54.265,54.206C54.884,53.729 55.581,53.343 56.331,53.061C56.897,52.867 57.262,52.946 57.248,53.597Z" fill="#C63001"/>
    <path d="M36.43,13.474C35.932,13.989 34.367,15.432 34.095,15.714C31.226,18.608 28.148,21.325 25.079,24.041C24.673,24.473 23.934,24.358 23.701,24.057C22.822,22.657 22.684,21.325 22.928,19.71C21.407,20.016 20.028,20.761 19.001,21.83C17.775,22.865 17.859,24.413 17.757,25.808C17.482,29.457 18.512,32.894 19.611,36.315C20.121,37.889 19.868,38.251 18.101,38.086C16.599,37.954 15.165,37.489 13.925,36.733C12.685,35.977 11.678,34.952 10.992,33.75C10.745,33.397 10.536,33.022 10.37,32.631C8.583,27.369 9.049,21.652 11.676,16.594C13.214,13.425 15.972,10.849 19.43,9.351C19.844,9.215 20.192,8.949 20.41,8.603C20.628,8.257 20.702,7.855 20.617,7.469C20.537,6.718 20.387,5.974 20.377,5.215C20.316,3.611 20.957,3.117 22.605,3.575C24.252,4.032 25.725,4.545 27.257,5.051C28.789,5.557 30.381,6.057 31.873,6.568C33.589,7.289 35.327,7.937 37.011,8.734C38.694,9.532 38.862,10.347 37.897,11.761C37.426,12.345 36.904,12.917 36.43,13.474ZM23.935,22.552C24.133,23.282 24.708,22.922 25.023,22.762C25.657,22.453 26.239,22.062 26.749,21.601C29.843,18.556 32.945,15.583 35.887,12.437C38.025,10.137 37.848,9.613 34.61,8.664C30.327,6.861 25.894,5.35 21.348,4.143C21.126,4.984 21.143,5.857 21.398,6.68C21.78,8.757 21.466,9.207 19.542,10.308C14.569,13.172 11.213,17.059 10.162,22.483C9.7,25.243 9.825,28.046 10.53,30.741C10.958,32.614 12.021,34.308 13.572,35.593C14.292,36.283 15.174,36.822 16.155,37.172C17.136,37.522 18.195,37.674 19.258,37.619C17.48,32.923 16.511,28.267 17.565,23.159C16.724,23.813 16.005,24.583 15.435,25.441C14.195,27.812 13.533,30.386 13.495,32.986C12.909,32.967 13.083,32.523 13.075,32.252C12.855,26.141 16.264,21.905 21.601,18.675C21.826,18.48 22.116,18.357 22.423,18.324C22.731,18.291 23.039,18.351 23.301,18.494C23.542,18.689 23.718,18.942 23.808,19.225C23.898,19.507 23.9,19.808 23.814,20.095C23.723,20.946 23.39,21.778 23.935,22.552Z" fill="#100605"/>
    <path d="M13.571,35.593C12.021,34.308 10.958,32.614 10.53,30.741C9.825,28.046 9.7,25.243 10.162,22.483C11.183,17.063 14.569,13.172 19.542,10.308C21.435,9.201 21.78,8.757 21.398,6.68C21.143,5.857 21.126,4.984 21.348,4.143C25.892,5.341 30.324,6.844 34.607,8.638C34.304,9.656 33.245,10.384 33.194,11.503C33.099,12.283 32.839,13.042 32.426,13.738C30.893,16.591 28.682,19.114 25.955,21.125C25.324,21.626 24.895,22.405 23.944,22.542C23.399,21.768 23.772,20.932 23.826,20.121C23.913,19.834 23.911,19.533 23.821,19.25C23.73,18.968 23.555,18.715 23.314,18.52C23.052,18.376 22.744,18.317 22.436,18.35C22.128,18.382 21.839,18.506 21.614,18.701C16.277,21.93 12.868,26.167 13.087,32.278C13.116,32.547 12.922,32.993 13.507,33.012C13.477,33.856 13.93,34.713 13.571,35.593Z" fill="#FF5823"/>
    <path d="M13.572,35.593C13.93,34.713 13.477,33.856 13.495,32.986C13.533,30.386 14.195,27.812 15.435,25.441C16.005,24.583 16.724,23.813 17.565,23.159C16.511,28.267 17.48,32.923 19.258,37.619C18.195,37.674 17.136,37.522 16.155,37.172C15.174,36.822 14.292,36.283 13.572,35.593Z" fill="#C63001"/>
    <path d="M23.935,22.552C24.929,22.446 25.315,21.636 25.945,21.135C28.673,19.124 30.884,16.601 32.417,13.748C32.83,13.052 33.09,12.293 33.185,11.513C33.238,10.412 34.297,9.684 34.598,8.648C37.837,9.596 38.01,10.093 35.875,12.42C32.933,15.566 29.835,18.575 26.737,21.584C26.227,22.045 25.645,22.436 25.011,22.745C24.708,22.922 24.108,23.33 23.935,22.552Z" fill="#C63001"/>
</svg>
