<?xml version="1.0" encoding="UTF-8" standalone="no"?>
<svg xmlns:android="http://schemas.android.com/apk/res/android" height="24" width="24" xmlns="http://www.w3.org/2000/svg">
    <path d="M20.901,13.178a4.892,4.892 0,0 0,-0.474 -1.354,5.222 5.222,0 0,0 -0.843,-1.107 4.42,4.42 0,0 0,-1.125 -0.844,4.233 4.233,0 0,0 -1.335,-0.475 3.093,3.093 0,0 0,-0.544 -0.087,6.23 6.23,0 0,0 -0.44,-0.018c-0.187,-0.516 -0.398,-0.99 -0.632,-1.424a9.435,9.435 0,0 0,-0.79 -1.213,8.449 8.449,0 0,0 -0.897,-1.02 12.36,12.36 0,0 0,-0.93 -0.843c0.269,0 0.485,-0.082 0.65,-0.246 0.163,-0.164 0.245,-0.381 0.245,-0.65 0,-0.27 -0.082,-0.487 -0.246,-0.65 -0.164,-0.165 -0.38,-0.247 -0.65,-0.247H6.601c-0.27,0 -0.486,0.082 -0.65,0.246 -0.164,0.164 -0.246,0.38 -0.246,0.65s0.082,0.487 0.246,0.65c0.164,0.165 0.38,0.247 0.65,0.247h0.984a8.681,8.681 0,0 0,-0.58 1.687c-0.14,0.61 -0.246,1.213 -0.316,1.811 -0.07,0.586 -0.105,1.137 -0.105,1.652 -0.012,0.528 -0.006,0.973 0.017,1.336a4.837,4.837 0,0 0,-1.44 0.703,5.301 5.301,0 0,0 -1.142,1.09c-0.316,0.41 -0.568,0.868 -0.755,1.371a4.824,4.824 0,0 0,-0.264 1.6c0,0.68 0.129,1.318 0.386,1.916 0.27,0.598 0.627,1.125 1.072,1.582 0.457,0.445 0.984,0.803 1.581,1.072A4.78,4.78 0,0 0,7.954 21c0.668,0 1.3,-0.129 1.897,-0.387a5.168,5.168 0,0 0,1.581 -1.072,5.47 5.47,0 0,0 1.072,-1.582 4.789,4.789 0,0 0,0.386 -1.916c0,-0.645 -0.117,-1.254 -0.351,-1.828a4.591,4.591 0,0 0,-0.949 -1.512,5.171 5.171,0 0,0 -1.423,-1.09 5.343,5.343 0,0 0,-1.774 -0.51c0,-0.515 0.018,-1.066 0.053,-1.652 0.047,-0.586 0.111,-1.16 0.193,-1.722 0.094,-0.563 0.217,-1.09 0.369,-1.583 0.152,-0.503 0.34,-0.92 0.562,-1.248 0.27,0.106 0.615,0.276 1.037,0.51 0.433,0.235 0.878,0.54 1.335,0.914 0.468,0.375 0.913,0.832 1.335,1.371a6.483,6.483 0,0 1,1.054 1.881,5.034 5.034,0 0,0 -0.896,0.475 8.92,8.92 0,0 0,-0.808 0.598c-0.094,0.093 -0.129,0.187 -0.106,0.28 0.024,0.083 0.059,0.17 0.106,0.264a7.348,7.348 0,0 1,1.51 2.198c0.375,0.832 0.563,1.716 0.563,2.654 0,0.41 -0.041,0.82 -0.123,1.23a9.882,9.882 0,0 1,-0.334 1.213,0.333 0.333,0 0,0 -0.018,0.282c0.047,0.105 0.112,0.158 0.194,0.158 0.27,0.094 0.538,0.164 0.808,0.21 0.27,0.048 0.538,0.071 0.808,0.071 0.773,0 1.487,-0.164 2.143,-0.492a5.111,5.111 0,0 0,1.669 -1.319,5.053 5.053,0 0,0 1.054,-4.218Z" fill="#D6DCEE"/>
</svg>
