<?xml version="1.0" encoding="UTF-8" standalone="no"?>
<svg xmlns:android="http://schemas.android.com/apk/res/android" height="120" width="120" xmlns="http://www.w3.org/2000/svg">
    <path d="M100,60.017C100,82.108 82.091,100.017 60,100.017C37.909,100.017 20,82.108 20,60.017C20,37.926 37.909,20.017 60,20.017C82.091,20.017 100,37.926 100,60.017ZM62.019,32.5C62.019,31.396 61.124,30.5 60.019,30.5C58.914,30.5 58.019,31.396 58.019,32.5L58.019,60C58.019,60.669 58.353,61.293 58.909,61.664L73.89,71.663C74.808,72.277 76.05,72.029 76.663,71.11C77.277,70.192 77.029,68.95 76.11,68.337L62.019,58.931L62.019,32.5Z" fill="#F1F4FC" fill-rule="evenOdd"/>
</svg>
