<?xml version="1.0" encoding="UTF-8" standalone="no"?>
<svg xmlns:android="http://schemas.android.com/apk/res/android" height="24" width="24" xmlns="http://www.w3.org/2000/svg">
    <path d="M6.167,6.167C5.706,6.167 5.333,6.54 5.333,7V18.667C5.333,19.127 5.706,19.5 6.167,19.5H17.833C18.294,19.5 18.667,19.127 18.667,18.667V7C18.667,6.54 18.294,6.167 17.833,6.167H6.167ZM3.667,7C3.667,5.619 4.786,4.5 6.167,4.5H17.833C19.214,4.5 20.333,5.619 20.333,7V18.667C20.333,20.048 19.214,21.167 17.833,21.167H6.167C4.786,21.167 3.667,20.048 3.667,18.667V7Z" fill="#808AA6" fill-rule="evenOdd"/>
    <path d="M15.333,2.833C15.794,2.833 16.167,3.207 16.167,3.667V7C16.167,7.46 15.794,7.833 15.333,7.833C14.873,7.833 14.5,7.46 14.5,7V3.667C14.5,3.207 14.873,2.833 15.333,2.833Z" fill="#808AA6" fill-rule="evenOdd"/>
    <path d="M8.667,2.833C9.127,2.833 9.5,3.207 9.5,3.667V7C9.5,7.46 9.127,7.833 8.667,7.833C8.206,7.833 7.833,7.46 7.833,7V3.667C7.833,3.207 8.206,2.833 8.667,2.833Z" fill="#808AA6" fill-rule="evenOdd"/>
    <path d="M3.667,10.333C3.667,9.873 4.04,9.5 4.5,9.5H19.5C19.96,9.5 20.333,9.873 20.333,10.333C20.333,10.794 19.96,11.167 19.5,11.167H4.5C4.04,11.167 3.667,10.794 3.667,10.333Z" fill="#808AA6" fill-rule="evenOdd"/>
</svg>
