<?xml version="1.0" encoding="UTF-8" standalone="no"?>
<svg xmlns:android="http://schemas.android.com/apk/res/android" height="24" width="24" xmlns="http://www.w3.org/2000/svg">
    <path d="M14.4278,4.0794C15.0851,3.807 15.7897,3.6668 16.5012,3.6668C17.2128,3.6668 17.9173,3.807 18.5747,4.0794C19.2319,4.3517 19.8291,4.7508 20.332,5.2539C20.8351,5.7569 21.2345,6.3543 21.5069,7.0115C21.7792,7.6689 21.9194,8.3734 21.9194,9.085C21.9194,9.7965 21.7792,10.5011 21.5069,11.1584C21.2345,11.8157 20.8354,12.4129 20.3322,12.9159C20.3321,12.9159 20.3322,12.9159 20.3322,12.9159L12.9655,20.2826C12.6401,20.608 12.1124,20.608 11.787,20.2826L4.4203,12.9159C3.4043,11.8999 2.8335,10.5219 2.8335,9.085C2.8335,7.6481 3.4043,6.2701 4.4203,5.2541C5.4363,4.238 6.8144,3.6672 8.2512,3.6672C9.6881,3.6672 11.0661,4.238 12.0822,5.2541L12.3762,5.5481L12.6702,5.2542C12.6702,5.2541 12.6701,5.2542 12.6702,5.2542C13.1732,4.751 13.7705,4.3517 14.4278,4.0794ZM16.5012,5.3335C16.0086,5.3335 15.5209,5.4305 15.0658,5.6191C14.6107,5.8077 14.1972,6.084 13.849,6.4324L12.9655,7.3159C12.6401,7.6413 12.1124,7.6413 11.787,7.3159L10.9036,6.4326C10.2002,5.7291 9.2461,5.3339 8.2512,5.3339C7.2564,5.3339 6.3023,5.7291 5.5988,6.4326C4.8954,7.136 4.5002,8.0901 4.5002,9.085C4.5002,10.0798 4.8954,11.0339 5.5988,11.7374L12.3762,18.5148L19.1536,11.7374C19.5021,11.3892 19.7786,10.9755 19.9671,10.5205C20.1557,10.0654 20.2528,9.5776 20.2528,9.085C20.2528,8.5924 20.1557,8.1046 19.9671,7.6495C19.7786,7.1944 19.5022,6.781 19.1538,6.4327C18.8055,6.0843 18.3918,5.8077 17.9367,5.6191C17.4816,5.4305 16.9938,5.3335 16.5012,5.3335Z" fill="#808AA6" fill-rule="evenOdd"/>
</svg>
