<?xml version="1.0" encoding="UTF-8" standalone="no"?>
<svg xmlns:android="http://schemas.android.com/apk/res/android" height="20" width="20" xmlns="http://www.w3.org/2000/svg">
    <path d="M9.4884,1.0089C9.7893,0.7748 10.2107,0.7748 10.5116,1.0089L18.0116,6.8422C18.2146,7.0001 18.3333,7.2428 18.3333,7.5V16.6667C18.3333,17.3297 18.0699,17.9656 17.6011,18.4344C17.1323,18.9033 16.4964,19.1667 15.8333,19.1667H4.1667C3.5036,19.1667 2.8677,18.9033 2.3989,18.4344C1.9301,17.9656 1.6667,17.3297 1.6667,16.6667V7.5C1.6667,7.2428 1.7854,7.0001 1.9884,6.8422L9.4884,1.0089ZM3.3333,7.9076V16.6667C3.3333,16.8877 3.4211,17.0996 3.5774,17.2559C3.7337,17.4122 3.9457,17.5 4.1667,17.5H15.8333C16.0544,17.5 16.2663,17.4122 16.4226,17.2559C16.5789,17.0996 16.6667,16.8877 16.6667,16.6667V7.9076L10,2.7224L3.3333,7.9076Z" fill="#D6DCEE" fill-rule="evenOdd"/>
    <path d="M6.6667,10C6.6667,9.5398 7.0398,9.1667 7.5,9.1667H12.5C12.9602,9.1667 13.3333,9.5398 13.3333,10V18.3333C13.3333,18.7936 12.9602,19.1667 12.5,19.1667C12.0398,19.1667 11.6667,18.7936 11.6667,18.3333V10.8333H8.3333V18.3333C8.3333,18.7936 7.9602,19.1667 7.5,19.1667C7.0398,19.1667 6.6667,18.7936 6.6667,18.3333V10Z" fill="#D6DCEE" fill-rule="evenOdd"/>
</svg>
