<?xml version="1.0" encoding="UTF-8" standalone="no"?>
<svg xmlns:android="http://schemas.android.com/apk/res/android" height="24" width="24" xmlns="http://www.w3.org/2000/svg">
    <path d="M10.886,15.389H10.552C9.764,15.389 8.976,15.389 8.188,15.389C7.853,15.389 7.764,15.298 7.761,14.957C7.759,14.705 7.755,14.454 7.758,14.202C7.761,13.866 7.86,13.766 8.187,13.765H10.596H10.872V12.884H10.549C9.761,12.884 8.973,12.884 8.185,12.884C7.854,12.884 7.761,12.784 7.759,12.446C7.759,12.172 7.753,11.898 7.759,11.623C7.766,11.349 7.868,11.253 8.135,11.251C8.713,11.248 9.291,11.251 9.869,11.251C9.959,11.251 10.046,11.244 10.172,11.238C10.005,10.928 9.855,10.644 9.7,10.363C8.874,8.855 8.047,7.348 7.219,5.84C7.19,5.786 7.16,5.734 7.129,5.682C6.898,5.308 6.949,4.968 7.514,5.003C8.022,5.035 8.535,5.02 9.045,5.005C9.274,4.998 9.406,5.088 9.503,5.287C9.982,6.259 10.474,7.226 10.949,8.201C11.325,8.97 11.683,9.749 12.049,10.523C12.072,10.56 12.098,10.595 12.125,10.628C12.179,10.532 12.225,10.462 12.26,10.386C13.008,8.71 13.758,7.036 14.498,5.355C14.61,5.101 14.754,4.989 15.042,5.001C15.574,5.026 16.108,5.005 16.64,5.01C16.953,5.013 17.088,5.231 16.94,5.513C16.267,6.794 15.59,8.073 14.909,9.35C14.608,9.919 14.306,10.487 14.002,11.055C13.976,11.105 13.957,11.161 13.922,11.25H15.817C16.259,11.25 16.33,11.322 16.331,11.762C16.331,11.998 16.33,12.235 16.327,12.471C16.325,12.787 16.24,12.882 15.926,12.882C15.092,12.887 14.259,12.891 13.427,12.882C13.231,12.88 13.156,12.931 13.173,13.137C13.191,13.333 13.177,13.531 13.177,13.75C13.282,13.756 13.369,13.765 13.457,13.765C14.267,13.765 15.078,13.765 15.889,13.765C16.234,13.765 16.33,13.863 16.33,14.212C16.33,14.471 16.336,14.731 16.33,14.99C16.325,15.294 16.237,15.387 15.936,15.389C15.11,15.394 14.285,15.4 13.459,15.385C13.227,15.381 13.169,15.449 13.172,15.679C13.185,16.624 13.179,17.569 13.176,18.515C13.176,18.926 13.107,18.994 12.704,18.998C12.254,19.001 11.803,18.998 11.353,19C10.989,19 10.891,18.903 10.89,18.522C10.888,17.569 10.888,16.617 10.89,15.665L10.886,15.389Z" fill="#808AA6"/>
</svg>
