<?xml version="1.0" encoding="UTF-8" standalone="no"?>
<svg xmlns:android="http://schemas.android.com/apk/res/android" height="32" width="94" xmlns="http://www.w3.org/2000/svg">
    <g clip-path="url(#_clippath_0)">
        <path d="M15.1271,31.9801C15.1271,31.9801 13.7031,31.3887 13.1529,31.1488C9.1899,29.3807 5.2556,27.5469 1.3127,25.7217C1.1942,25.6479 1.0854,25.5596 0.9889,25.4589C0.8227,24.0936 0.8428,1.1797 1.0204,0.0371C2.2211,0.3399 3.2698,0.9797 4.373,1.4653C7.8546,3.0278 15.0007,6.3495 15.0007,6.3495V12.493C15.0007,12.493 11.915,11.1028 10.4536,10.4544C9.2788,9.9317 8.1039,9.4031 6.8431,8.8347V21.9227C9.1154,22.9967 11.3247,24.0535 13.5483,25.0847C14.0584,25.3189 15.1444,25.6418 15.1444,25.6418L15.1271,31.9801Z" fill="#808AA6"/>
        <path d="M15.1441,25.6503L23.1846,21.937L23.2462,8.8069C20.6819,10.0063 15.0005,12.5237 15.0005,12.5237C15.0005,12.5237 15.0157,8.3719 15.0005,6.3496C17.8086,5.0185 20.7432,3.6791 23.5543,2.3509C25.2564,1.5511 26.9699,0.7769 28.6864,-0.0143C28.9557,1.0083 28.8038,25.5331 28.8038,25.5331L15.124,31.9745L15.1441,25.6503Z" fill="#5A6585"/>
        <path d="M44.5441,0.797V12.2397H42.1944C42.1331,11.1729 42.1199,10.1688 42.0798,9.0976C42.0397,8.0265 42.0798,6.9211 42.0798,5.7128L39.5725,7.5437C38.7931,6.9495 38.1398,6.2612 37.1856,5.7671V12.251H34.6582V0.8884L39.6212,4.5417L44.5441,0.797Z" fill="#808AA6"/>
        <path d="M77.9928,22.0657L81.1219,26.7615C80.2278,26.9643 79.4398,26.8215 78.5859,26.8929L75.9296,22.7283C75.7488,22.6431 75.5499,22.6032 75.3501,22.6121C75.1503,22.6211 74.9558,22.6787 74.7834,22.7798V26.5958H72.4604C72.4607,25.6197 72.4605,18.936 72.5025,15.8302C73.9983,15.7074 75.5284,15.6102 77.007,15.8302C78.7263,16.0844 79.8897,17.1584 80.139,19.0979C80.0807,19.7388 79.8507,20.3524 79.4732,20.8744C79.0956,21.3965 78.5843,21.8079 77.9928,22.0657ZM74.8121,20.6089C77.2019,20.6575 77.5629,20.3975 77.5343,18.7294C77.5256,18.2229 77.007,17.881 76.5887,17.8182H74.8121V20.6089Z" fill="#808AA6"/>
        <path d="M64.7606,12.271H62.3106C61.9136,11.7047 61.6322,11.0661 61.4825,10.3915H57.3963L56.5023,12.1795C55.7229,12.4137 54.9377,12.3081 53.9893,12.2481C55.3389,8.7948 57.0553,5.6242 58.4336,2.2508L57.8118,0.797C58.5339,0.6284 59.1758,0.6998 59.9724,0.7455C61.6372,4.4845 63.1015,8.3149 64.7606,12.271ZM60.4137,7.8864C60.0383,7.0667 59.8807,6.1898 59.2675,5.4329C58.4909,7.2581 58.4909,7.2581 58.5855,8.0407C59.1586,7.915 59.7546,8.1407 60.4137,7.8864Z" fill="#808AA6"/>
        <path d="M61.0177,15.83H63.2442C63.2442,18.6629 63.1558,20.3843 63.4004,23.1212C63.4914,24.1388 64.1965,24.8727 65.6495,24.8727C67.4564,24.8727 67.7286,24.122 67.8146,21.8969C67.892,19.8974 67.8289,17.9181 67.8289,15.8643C68.6005,15.7547 69.3822,15.7335 70.1586,15.8014C70.1586,18.3979 70.2216,20.9058 70.1357,23.4079C70.0812,25.0732 68.9608,26.073 67.4564,26.4986C66.2668,26.8598 64.9183,26.8914 63.7388,26.4986C61.8189,25.8217 61.0463,24.5677 61.0206,22.5368C60.9948,20.3545 61.0177,18.1694 61.0177,15.83Z" fill="#808AA6"/>
        <path d="M49.4299,20.0803C49.96,20.7459 49.6764,21.3543 49.7938,22.0569H46.1088V24.9133H50.0145V26.6271C47.8854,26.7671 45.7793,26.6471 43.6875,26.6985C43.5328,25.2504 43.5213,17.4753 43.6617,15.8443H49.9658C50.2781,16.3813 49.9428,16.9868 50.1864,17.6952H46.1805C45.9541,18.515 46.0773,19.2406 46.0515,20.0803H49.4299Z" fill="#808AA6"/>
        <path d="M86.2916,9.4946L87.9536,10.46C86.922,12.1739 84.6697,12.7452 82.6152,11.8683C80.2197,10.8543 79.7497,8.6863 80.3027,6.7069C81.0163,4.2104 82.9762,3.4534 85.4406,3.8105C87.5725,4.1189 88.8992,6.0956 88.7244,8.6663H82.79C83.045,10.2373 84.5494,10.5658 86.2916,9.4946ZM82.4433,6.8126C83.7255,6.9455 85.018,6.9455 86.3002,6.8126C86.0963,6.4474 85.8014,6.1407 85.4441,5.9221C85.0868,5.7034 84.679,5.5802 84.26,5.5643C83.4662,5.5386 82.8645,5.9814 82.4433,6.8126Z" fill="#808AA6"/>
        <path d="M76.837,9.4946L78.499,10.46C77.4674,12.1739 75.2152,12.7452 73.1606,11.8683C70.7651,10.8543 70.2951,8.6863 70.8482,6.7069C71.5617,4.2104 73.5217,3.4534 75.986,3.8105C78.1179,4.1189 79.4446,6.0956 79.2698,8.6663H73.3354C73.5904,10.2373 75.0948,10.5658 76.837,9.4946ZM72.9887,6.8126C74.2709,6.9455 75.5634,6.9455 76.8456,6.8126C76.6417,6.4474 76.3469,6.1407 75.9895,5.9221C75.6322,5.7034 75.2244,5.5802 74.8054,5.5643C74.0117,5.5386 73.4099,5.9814 72.9887,6.8126Z" fill="#808AA6"/>
        <path d="M88.7242,15.8386V17.7153H84.8386C84.638,18.4951 84.7727,19.195 84.7297,19.9519C85.8472,20.2518 86.9877,19.9747 88.1224,20.1261C88.6955,20.626 88.3402,21.2686 88.4749,21.9198C87.2513,22.2683 86.0077,21.9056 84.7784,22.1484V24.7906C86.0421,25.0762 87.3745,24.7391 88.7099,24.9847V26.5958H82.6121C82.3972,25.6046 82.3256,18.1951 82.5376,15.8329L88.7242,15.8386Z" fill="#808AA6"/>
        <path d="M34.7876,17.3716C36.4295,15.0864 38.759,14.7561 41.5128,16.2785L40.8537,17.7268C39.8909,18.0438 38.9625,17.2012 37.8879,17.5925C37.6311,17.7089 37.4248,17.9133 37.3065,18.1686C37.1882,18.4239 37.1657,18.7132 37.2432,18.9836C37.6587,19.6662 38.4324,19.9947 39.1545,20.2747C39.5786,20.4693 39.9918,20.6867 40.3924,20.9258C42.4297,21.9741 42.126,25.4475 40.08,26.2216C39.2092,26.561 38.2793,26.7242 37.3446,26.7016C36.4098,26.6791 35.4889,26.4712 34.6356,26.0902V24.1594C36.2546,24.445 37.8106,25.6332 39.3551,24.3164C39.4837,24.0296 39.5168,23.7092 39.4496,23.4023C38.9883,22.6082 38.2261,22.2283 37.4438,21.9027C36.2804,21.4257 35.3247,20.8646 34.7258,19.4307C34.4994,18.8886 34.5303,17.7297 34.7876,17.3716Z" fill="#808AA6"/>
        <path d="M59.2473,24.5391V26.4701C57.6569,26.9614 56.1124,27.1213 54.5049,26.65C52.6252,26.0959 51.6394,24.4821 51.5334,22.774C51.4503,21.56 51.4102,20.3403 51.7827,19.115C52.3558,17.2126 53.7054,16.21 55.5078,15.8416C56.9142,15.5773 58.369,15.8213 59.6112,16.5298C59.4536,17.1325 59.3246,17.6725 58.8977,18.0152C58.4593,18.1609 58.1985,17.8981 57.9005,17.7781C55.7428,16.8955 53.9691,18.1409 53.8229,20.3489C53.7475,21.1091 53.7542,21.8752 53.843,22.634C54.0407,23.9536 54.7284,25.039 56.3474,24.9562C57.2844,24.9076 58.23,24.9619 59.2473,24.5391Z" fill="#808AA6"/>
        <path d="M53.8831,5.5757C53.4132,6.1641 52.8,6.4184 52.2326,6.7183C51.9114,6.4911 51.5478,6.0013 50.8171,5.7414C50.3972,5.6449 49.6681,5.6776 49.3413,5.8616C48.2038,6.4764 47.8198,7.5837 48.2038,8.6063C48.6135,9.6946 49.4674,10.1459 50.9546,10.0688C51.4332,9.8974 51.6653,9.4347 52.0521,9.1691C52.8029,9.0919 53.2381,9.4546 53.9003,9.9659C53.6017,10.9091 52.7255,11.834 51.608,12.1768C48.3213,13.1822 45.6678,10.8371 45.7996,7.8922C45.9257,5.0958 48.3327,3.1735 51.416,3.8933C52.3874,4.1047 53.3043,4.5331 53.8831,5.5757Z" fill="#808AA6"/>
        <path d="M71.1414,1.3797L70.3046,3.242H68.9006C68.21,3.5648 68.1527,4.1331 68.2558,4.9015H69.8261V7.0838C69.3418,7.398 68.7716,7.0324 68.2386,7.3694V12.1367C67.5395,12.4595 66.8919,12.1996 66.1755,12.3567V7.5837C65.8603,7.0124 65.3588,7.3809 65.0293,7.0467V5.0729C65.2471,4.7587 65.7199,5.0444 66.0609,4.8016L66.1669,2.885C66.3287,0.7273 69.0811,0.9169 71.1414,1.3797Z" fill="#808AA6"/>
        <path d="M92.0422,17.6925C91.7557,17.1584 92.1798,16.55 91.7099,16.0073C91.025,16.4529 91.5924,17.2012 91.217,17.6982C90.9132,17.3355 91.1396,16.9042 91.0135,16.4472L90.5063,15.853C91.1253,15.6673 91.7299,15.8186 92.3116,15.8215C92.6497,16.1243 92.3374,16.7613 92.9821,16.847C93.2687,16.5614 93.0509,15.8329 93.8217,15.7844C94.071,16.4128 93.9306,17.0441 93.9134,17.7039C93.4693,17.5583 93.7529,17.1784 93.5552,16.9841C93.1913,17.0698 93.4005,17.621 92.9592,17.6467C92.601,17.6467 92.5838,17.2555 92.3861,17.0127C92.0365,17.107 92.3746,17.524 92.0422,17.6925Z" fill="#808AA6"/>
    </g>
    <defs id="svg-definitions">
        <clipPath id="_clippath_0">
            <path d="M0.874,0h93.0909v32h-93.0909z"/>
        </clipPath>
    </defs>
</svg>
