<?xml version="1.0" encoding="UTF-8" standalone="no"?>
<svg xmlns:android="http://schemas.android.com/apk/res/android" height="24" width="24" xmlns="http://www.w3.org/2000/svg">
    <path d="M8.253,2.943C8.495,2.805 8.79,2.797 9.039,2.921L15.307,6.055L20.753,2.943C21.011,2.796 21.328,2.797 21.585,2.946C21.842,3.095 22,3.37 22,3.667V17C22,17.299 21.84,17.575 21.58,17.724L15.747,21.057C15.505,21.195 15.21,21.204 14.961,21.079L8.693,17.945L3.247,21.057C2.989,21.204 2.672,21.203 2.415,21.054C2.158,20.905 2,20.631 2,20.333V7C2,6.701 2.16,6.425 2.42,6.277L8.253,2.943ZM8.693,4.612L3.667,7.484V18.897L8.253,16.277C8.495,16.138 8.79,16.13 9.039,16.255L15.307,19.389L20.333,16.517V5.103L15.747,7.724C15.505,7.862 15.21,7.87 14.961,7.746L8.693,4.612Z" fill="#0066DD" fill-rule="evenOdd"/>
    <path d="M8.667,2.833C9.127,2.833 9.5,3.207 9.5,3.667V17C9.5,17.46 9.127,17.833 8.667,17.833C8.207,17.833 7.833,17.46 7.833,17V3.667C7.833,3.207 8.207,2.833 8.667,2.833Z" fill="#0066DD" fill-rule="evenOdd"/>
    <path d="M15.333,6.167C15.794,6.167 16.167,6.54 16.167,7V20.333C16.167,20.793 15.794,21.167 15.333,21.167C14.873,21.167 14.5,20.793 14.5,20.333V7C14.5,6.54 14.873,6.167 15.333,6.167Z" fill="#0066DD" fill-rule="evenOdd"/>
</svg>
