<?xml version="1.0" encoding="UTF-8" standalone="no"?>
<svg xmlns:aapt="http://schemas.android.com/aapt" xmlns:android="http://schemas.android.com/apk/res/android" height="32" width="32" xmlns="http://www.w3.org/2000/svg">
    <path d="M25.0086,29.218L22.9112,26.7783C20.8648,28.0965 18.4688,28.8102 16,28.8102C8.9358,28.8102 3.1898,23.0642 3.1898,16C3.1898,8.9358 8.9358,3.1898 16,3.1898C23.0642,3.1898 28.8102,8.9358 28.8102,16C28.8102,16.9322 28.7082,17.8571 28.5116,18.7528C28.1038,20.4351 26.924,20.9595 26.0209,20.8867C25.1325,20.8138 24.0765,20.1802 24.0692,18.6145V16C24.0692,11.5503 20.4497,7.9308 16,7.9308C11.5503,7.9308 7.9308,11.5503 7.9308,16C7.9308,20.4497 11.5503,24.0692 16,24.0692C18.2576,24.0692 20.2968,23.137 21.7606,21.6441C22.6199,23.0205 24.0546,23.9308 25.766,24.0692C25.9117,24.0837 26.0501,24.091 26.1957,24.091C27.3537,24.091 28.4898,23.7123 29.4219,23.0059C30.3833,22.2704 31.0897,21.2362 31.4829,19.9763C31.5485,19.7724 31.6577,19.3063 31.665,19.3063C31.9272,18.1702 32.0073,17.1215 32.0073,16.0146C32,7.1734 24.8193,0 16,0C7.1807,0 0,7.1734 0,16C0,24.8193 7.1807,32 16,32C19.2408,32 22.3723,31.0241 25.0086,29.218ZM16,20.8794C13.3127,20.8794 11.1206,18.6873 11.1206,16C11.1206,13.3127 13.3127,11.1206 16,11.1206C18.6873,11.1206 20.8794,13.3127 20.8794,16C20.8794,18.6873 18.6873,20.8794 16,20.8794Z" fill="url(#_linear_gradient_0)"/>
    <defs id="svg-definitions">
        <linearGradient gradientUnits="userSpaceOnUse" id="_linear_gradient_0" x1="25.6889" x2="7.61628" y1="30.1522" y2="3.75428">
            <stop offset="0" stop-color="#FF7E00" stop-opacity="1.0"/>
            <stop offset="1" stop-color="#FFAC00" stop-opacity="1.0"/>
        </linearGradient>
    </defs>
</svg>
