<?xml version="1.0" encoding="UTF-8" standalone="no"?>
<svg xmlns:android="http://schemas.android.com/apk/res/android" height="20" width="20" xmlns="http://www.w3.org/2000/svg">
    <path d="M10,2.5C8.674,2.5 7.4022,3.0268 6.4645,3.9645C5.5268,4.9022 5,6.1739 5,7.5V11.6667C5,12.2569 4.8435,12.8309 4.5535,13.3333H15.4466C15.1566,12.8309 15,12.2569 15,11.6667V7.5C15,6.1739 14.4733,4.9022 13.5356,3.9645C12.5979,3.0268 11.3261,2.5 10,2.5ZM18.3334,13.3333C17.8913,13.3333 17.4674,13.1577 17.1549,12.8452C16.8423,12.5326 16.6667,12.1087 16.6667,11.6667V7.5C16.6667,5.7319 15.9643,4.0362 14.7141,2.786C13.4638,1.5357 11.7682,0.8333 10,0.8333C8.2319,0.8333 6.5362,1.5357 5.286,2.786C4.0357,4.0362 3.3334,5.7319 3.3334,7.5V11.6667C3.3334,12.1087 3.1578,12.5326 2.8452,12.8452C2.5327,13.1577 2.1087,13.3333 1.6667,13.3333C1.2065,13.3333 0.8334,13.7064 0.8334,14.1667C0.8334,14.6269 1.2065,15 1.6667,15H18.3334V13.3333ZM8.1402,16.7792C8.5383,16.5482 9.0483,16.6838 9.2792,17.0819C9.3525,17.2081 9.4576,17.313 9.5841,17.3858C9.7106,17.4587 9.854,17.4971 10,17.4971C10.146,17.4971 10.2895,17.4587 10.416,17.3858C10.5425,17.313 10.6476,17.2081 10.7209,17.0819C10.9518,16.6838 11.4617,16.5482 11.8598,16.7792C12.258,17.0101 12.3935,17.52 12.1625,17.9182C11.9428,18.297 11.6273,18.6115 11.2478,18.8301C10.8683,19.0487 10.438,19.1637 10,19.1637C9.5621,19.1637 9.1318,19.0487 8.7523,18.8301C8.3727,18.6115 8.0573,18.297 7.8375,17.9182C7.6066,17.52 7.7421,17.0101 8.1402,16.7792Z" fill="#ffffff" fill-rule="evenOdd"/>
</svg>
