<?xml version="1.0" encoding="UTF-8" standalone="no"?>
<svg xmlns:android="http://schemas.android.com/apk/res/android" height="24" width="24" xmlns="http://www.w3.org/2000/svg">
    <path d="M12.5,3.75C7.944,3.75 4.25,7.444 4.25,12C4.25,16.556 7.944,20.25 12.5,20.25C17.056,20.25 20.75,16.556 20.75,12C20.75,7.444 17.056,3.75 12.5,3.75ZM2.75,12C2.75,6.615 7.115,2.25 12.5,2.25C17.885,2.25 22.25,6.615 22.25,12C22.25,17.385 17.885,21.75 12.5,21.75C7.115,21.75 2.75,17.385 2.75,12Z" fill="#808AA6" fill-rule="evenOdd"/>
    <path d="M9.53,12.385L9.889,11.67L11.071,9.624H12.586L11.071,12.079L12.688,15.607H11.189L10.11,13.078L9.551,13.583V15.607H8.122V7.25H9.551V11.187L9.487,12.385H9.53Z" fill="#808AA6"/>
    <path d="M16.362,9.511C16.538,9.511 16.709,9.538 16.878,9.592L16.711,10.977C16.611,10.942 16.48,10.924 16.319,10.924C15.972,10.924 15.705,11.062 15.519,11.337C15.333,11.609 15.24,12.007 15.24,12.53V15.607H13.811V9.624H14.987L15.148,10.559H15.196C15.354,10.183 15.526,9.914 15.712,9.753C15.898,9.592 16.115,9.511 16.362,9.511Z" fill="#808AA6"/>
    <path d="M9.53,12.385L9.889,11.67L11.071,9.624H12.586L11.071,12.079L12.688,15.607H11.189L10.11,13.078L9.551,13.583V15.607H8.122V7.25H9.551V11.187L9.487,12.385H9.53Z" fill="#000000" fill-opacity="0.0" stroke="#808AA6" stroke-linejoin="round" stroke-width="0.25"/>
    <path d="M16.362,9.511C16.538,9.511 16.709,9.538 16.878,9.592L16.711,10.977C16.611,10.942 16.48,10.924 16.319,10.924C15.972,10.924 15.705,11.062 15.519,11.337C15.333,11.609 15.24,12.007 15.24,12.53V15.607H13.811V9.624H14.987L15.148,10.559H15.196C15.354,10.183 15.526,9.914 15.712,9.753C15.898,9.592 16.115,9.511 16.362,9.511Z" fill="#000000" fill-opacity="0.0" stroke="#808AA6" stroke-linejoin="round" stroke-width="0.25"/>
</svg>
