<?xml version="1.0" encoding="UTF-8" standalone="no"?>
<svg xmlns:android="http://schemas.android.com/apk/res/android" height="24" width="24" xmlns="http://www.w3.org/2000/svg">
    <path d="M12.5,3.75C7.944,3.75 4.25,7.444 4.25,12C4.25,16.556 7.944,20.25 12.5,20.25C17.056,20.25 20.75,16.556 20.75,12C20.75,7.444 17.056,3.75 12.5,3.75ZM2.75,12C2.75,6.615 7.115,2.25 12.5,2.25C17.885,2.25 22.25,6.615 22.25,12C22.25,17.385 17.885,21.75 12.5,21.75C7.115,21.75 2.75,17.385 2.75,12Z" fill="#808AA6" fill-rule="evenOdd"/>
    <path d="M10.899,13.746C10.899,14.48 10.713,15.042 10.341,15.432C9.972,15.822 9.438,16.018 8.74,16.018C8.056,16.018 7.474,15.883 6.995,15.615V14.17C7.582,14.553 8.121,14.745 8.611,14.745C8.891,14.745 9.1,14.668 9.24,14.514C9.383,14.36 9.455,14.15 9.455,13.885C9.455,13.624 9.37,13.386 9.202,13.171C9.034,12.953 8.756,12.711 8.37,12.446C8.033,12.213 7.777,11.991 7.602,11.78C7.43,11.565 7.295,11.325 7.199,11.06C7.106,10.795 7.059,10.487 7.059,10.136C7.059,9.463 7.245,8.93 7.618,8.536C7.994,8.142 8.497,7.945 9.127,7.945C9.729,7.945 10.307,8.113 10.862,8.45L10.378,9.621C10.207,9.52 10.026,9.431 9.836,9.352C9.65,9.273 9.449,9.234 9.234,9.234C8.998,9.234 8.815,9.313 8.687,9.47C8.561,9.624 8.499,9.835 8.499,10.104C8.499,10.369 8.574,10.6 8.724,10.797C8.878,10.994 9.145,11.218 9.524,11.468C10.036,11.812 10.393,12.163 10.593,12.521C10.797,12.879 10.899,13.287 10.899,13.746Z" fill="#808AA6"/>
    <path d="M16.062,8.058L13.134,15.91H11.759L14.686,8.058H16.062Z" fill="#808AA6"/>
    <path d="M16.228,15.174C16.228,14.895 16.301,14.678 16.448,14.524C16.598,14.37 16.82,14.293 17.114,14.293C17.407,14.293 17.629,14.37 17.78,14.524C17.93,14.675 18.005,14.891 18.005,15.174C18.005,15.454 17.927,15.67 17.769,15.824C17.615,15.978 17.397,16.055 17.114,16.055C16.824,16.055 16.604,15.978 16.453,15.824C16.303,15.667 16.228,15.45 16.228,15.174Z" fill="#808AA6"/>
    <path d="M10.899,13.746C10.899,14.48 10.713,15.042 10.341,15.432C9.972,15.822 9.438,16.018 8.74,16.018C8.056,16.018 7.474,15.883 6.995,15.615V14.17C7.582,14.553 8.121,14.745 8.611,14.745C8.891,14.745 9.1,14.668 9.24,14.514C9.383,14.36 9.455,14.15 9.455,13.885C9.455,13.624 9.37,13.386 9.202,13.171C9.034,12.953 8.756,12.711 8.37,12.446C8.033,12.213 7.777,11.991 7.602,11.78C7.43,11.565 7.295,11.325 7.199,11.06C7.106,10.795 7.059,10.487 7.059,10.136C7.059,9.463 7.245,8.93 7.618,8.536C7.994,8.142 8.497,7.945 9.127,7.945C9.729,7.945 10.307,8.113 10.862,8.45L10.378,9.621C10.207,9.52 10.026,9.431 9.836,9.352C9.65,9.273 9.449,9.234 9.234,9.234C8.998,9.234 8.815,9.313 8.687,9.47C8.561,9.624 8.499,9.835 8.499,10.104C8.499,10.369 8.574,10.6 8.724,10.797C8.878,10.994 9.145,11.218 9.524,11.468C10.036,11.812 10.393,12.163 10.593,12.521C10.797,12.879 10.899,13.287 10.899,13.746Z" fill="#000000" fill-opacity="0.0" stroke="#808AA6" stroke-linejoin="round" stroke-width="0.25"/>
    <path d="M16.062,8.058L13.134,15.91H11.759L14.686,8.058H16.062Z" fill="#000000" fill-opacity="0.0" stroke="#808AA6" stroke-linejoin="round" stroke-width="0.25"/>
    <path d="M16.228,15.174C16.228,14.895 16.301,14.678 16.448,14.524C16.598,14.37 16.82,14.293 17.114,14.293C17.407,14.293 17.629,14.37 17.78,14.524C17.93,14.675 18.005,14.891 18.005,15.174C18.005,15.454 17.927,15.67 17.769,15.824C17.615,15.978 17.397,16.055 17.114,16.055C16.824,16.055 16.604,15.978 16.453,15.824C16.303,15.667 16.228,15.45 16.228,15.174Z" fill="#000000" fill-opacity="0.0" stroke="#808AA6" stroke-linejoin="round" stroke-width="0.25"/>
</svg>
