<?xml version="1.0" encoding="UTF-8" standalone="no"?>
<svg xmlns:android="http://schemas.android.com/apk/res/android" height="118" width="118" xmlns="http://www.w3.org/2000/svg">
    <path d="M48.619,45.254C49.174,43.843 49.778,43.44 51.239,43.491C52.096,43.541 52.499,42.836 52.046,42.029C51.592,41.173 50.887,40.468 50.081,39.863C48.468,38.704 46.806,38.704 45.244,39.913C44.236,40.669 43.782,41.727 43.48,42.886C42.221,47.37 42.069,52.056 41.666,56.641C41.313,60.773 41.112,64.905 40.86,69.036C40.86,69.238 40.961,69.54 40.608,69.59C40.306,69.59 40.155,69.339 40.104,69.087C40.004,68.482 39.953,67.877 39.903,67.273C39.348,62.436 38.341,57.7 36.829,53.064C36.678,52.661 36.577,52.258 36.174,51.956C34.713,50.696 33.101,49.688 31.236,49.033C30.178,48.681 29.07,48.429 28.012,48.983C25.795,50.041 23.931,51.502 22.872,53.719C21.361,56.793 20.807,60.017 21.059,63.393C21.31,66.567 24.334,69.188 27.357,68.986C28.314,68.936 28.667,68.381 28.062,67.726C26.601,65.963 26.399,63.897 26.299,61.781C26.399,59.816 26.551,57.851 26.954,55.986C27.306,54.424 27.81,52.862 28.818,51.552C29.523,50.646 29.775,50.646 30.279,51.653C30.733,52.51 31.186,53.366 31.589,54.273C34.058,59.816 35.318,65.711 36.426,71.656C36.577,72.362 36.779,72.916 37.383,73.319C38.694,74.327 40.205,74.982 41.817,75.435C43.329,75.889 44.034,75.435 44.589,73.924C44.689,73.672 44.74,73.42 44.79,73.168C45.496,70.749 45.596,68.23 45.848,65.711C46.352,60.723 46.654,55.735 47.41,50.746C47.662,48.882 47.914,47.018 48.619,45.254Z" fill="#ffffff"/>
    <path d="M70.991,66.063C70.789,66.114 70.588,66.114 70.386,66.114C68.874,66.215 68.874,66.215 69.026,64.804C69.076,64.401 69.127,63.998 69.177,63.595C69.479,61.075 69.782,58.506 70.084,55.986C70.134,55.684 70.235,55.18 69.983,55.13C68.925,54.878 69.328,54.021 69.278,53.417C68.925,49.839 67.061,48.429 63.685,50.343C60.863,51.956 59.15,54.424 58.546,57.599C58.293,58.858 58.042,59.967 57.135,60.874C56.278,61.73 55.674,62.839 54.615,63.494C53.356,64.25 52.197,63.947 51.643,62.738C51.34,62.083 51.391,61.73 52.197,61.428C55.22,60.269 57.336,58.203 57.89,54.827C58.243,52.661 56.984,51.049 54.867,50.998C53.809,50.998 52.852,51.452 51.995,52.056C47.864,54.928 46.151,61.378 48.267,65.862C49.778,69.036 52.6,69.691 55.321,67.474C55.976,66.97 56.48,66.366 56.933,65.66C57.487,64.804 57.991,63.947 58.546,63.04C60.158,67.172 61.82,68.18 64.995,65.358C64.945,66.013 64.793,66.517 64.844,67.021C64.894,67.726 64.592,68.079 63.937,68.331C62.677,68.784 61.518,69.49 60.41,70.296C58.142,71.908 56.933,73.974 57.286,76.846C57.588,79.466 59.201,80.625 61.82,80.222C64.944,79.769 66.557,76.745 66.809,74.629C66.96,73.369 67.061,72.11 67.161,70.8C67.212,70.447 67.262,70.145 67.665,70.044C69.429,69.691 71.142,69.339 72.956,69.641C74.014,69.842 75.072,69.994 76.13,70.145C76.483,70.195 76.987,70.346 77.239,69.893C77.44,69.54 77.138,69.188 76.936,68.885C75.525,66.87 73.712,65.459 70.991,66.063ZM53.86,53.669C54.263,53.316 54.666,53.014 55.22,53.316C55.774,53.669 55.724,54.173 55.573,54.727C55.019,56.591 53.507,57.347 51.794,58.103C52.146,56.389 52.55,54.777 53.86,53.669ZM62.728,74.176C62.324,75.788 61.014,76.896 59.654,76.896C58.646,76.896 58.293,76.342 58.697,75.385C59.201,74.226 60.309,73.722 61.266,73.067C61.72,72.765 62.324,72.11 62.778,72.412C63.332,72.815 62.828,73.621 62.728,74.176ZM66.506,54.827C65.801,54.727 65.6,55.13 65.549,55.785C65.499,57.095 65.398,58.405 65.348,59.715C65.297,60.32 65.146,60.874 64.642,61.327C63.685,62.133 62.576,61.882 62.224,60.672C62.072,60.068 62.022,59.463 62.123,58.707C62.224,56.793 62.828,54.878 64.289,53.366C64.491,53.165 64.743,52.963 64.995,52.762C66.406,51.704 67.161,52.056 67.413,53.769C67.464,54.475 67.363,54.928 66.506,54.827Z" fill="#ffffff"/>
    <path d="M91.447,50.746C90.792,50.646 90.641,50.998 90.641,51.603C90.641,52.51 91.196,53.014 91.851,53.467C92.506,53.87 93.009,53.467 93.513,53.114C94.924,52.107 95.378,49.94 94.672,47.773C94.269,46.463 93.463,45.556 92.052,45.506C87.517,45.305 84.293,48.076 85.099,53.417C85.451,55.734 84.494,57.397 83.184,59.009C82.932,59.312 82.63,59.614 82.227,59.463C81.773,59.312 81.924,58.858 81.975,58.506C82.076,56.944 82.579,55.482 83.285,54.122C83.587,53.467 83.789,52.812 82.781,52.711C81.723,52.611 81.421,52.107 81.572,51.149C81.622,50.897 81.572,50.696 81.572,50.444C81.37,48.025 79.909,47.118 77.692,48.025C77.239,48.227 76.785,48.429 76.382,48.731C73.409,50.746 71.747,53.568 71.495,57.145C71.394,58.909 71.495,60.672 72.301,62.285C73.359,64.401 75.626,64.754 77.289,63.141C77.591,62.839 77.843,62.536 78.146,62.184C79.456,64.199 80.413,64.602 82.227,64.098C83.537,63.746 84.242,62.738 84.797,61.579C85.703,59.765 85.955,57.8 86.308,55.734C87.366,56.389 88.424,56.893 89.23,57.8C90.087,58.657 89.986,59.715 89.079,60.319C88.475,60.723 87.92,60.521 87.366,60.269C86.862,60.068 86.51,60.219 86.459,60.773C86.358,61.428 87.013,62.688 87.669,62.839C89.281,63.192 90.893,63.141 92.254,62.033C94.017,60.622 94.118,57.75 92.556,56.138C91.599,55.18 90.54,54.324 89.835,53.165C88.575,51.049 89.331,48.429 91.447,47.824C92.002,47.673 92.506,47.673 92.808,48.177C93.211,48.882 93.06,49.587 92.808,50.293C92.556,50.696 92.052,50.847 91.447,50.746ZM79.707,52.51C78.095,53.467 78.095,55.079 77.743,56.591C77.642,57.044 77.591,57.498 77.541,58.002C77.491,58.657 77.088,58.959 76.533,59.06C75.929,59.161 75.576,58.758 75.425,58.254C75.274,57.75 75.173,57.196 75.122,56.893C75.274,54.525 75.727,52.56 77.39,51.049C77.692,50.746 78.095,50.545 78.498,50.343C78.952,50.091 79.456,50.142 79.707,50.645C79.959,51.25 80.312,52.157 79.707,52.51Z" fill="#ffffff"/>
</svg>
