<?xml version="1.0" encoding="UTF-8" standalone="no"?>
<svg xmlns:android="http://schemas.android.com/apk/res/android" height="24" width="24" xmlns="http://www.w3.org/2000/svg">
    <path d="M12.5,3.75C7.944,3.75 4.25,7.444 4.25,12C4.25,16.556 7.944,20.25 12.5,20.25C17.056,20.25 20.75,16.556 20.75,12C20.75,7.444 17.056,3.75 12.5,3.75ZM2.75,12C2.75,6.615 7.115,2.25 12.5,2.25C17.885,2.25 22.25,6.615 22.25,12C22.25,17.385 17.885,21.75 12.5,21.75C7.115,21.75 2.75,17.385 2.75,12Z" fill="#808AA6" fill-rule="evenOdd"/>
    <path d="M9.022,15.633H7.708V8.272H9.022V15.633Z" fill="#808AA6"/>
    <path d="M12.722,15.727C12.034,15.727 11.49,15.494 11.092,15.027C10.696,14.557 10.499,13.894 10.499,13.036C10.499,12.165 10.678,11.486 11.037,10.997C11.396,10.508 11.897,10.264 12.54,10.264C13.139,10.264 13.612,10.474 13.958,10.893C14.304,11.309 14.477,11.894 14.477,12.648V13.32H11.833C11.843,13.79 11.943,14.139 12.134,14.37C12.325,14.597 12.589,14.71 12.925,14.71C13.353,14.71 13.792,14.583 14.24,14.327V15.363C13.818,15.606 13.312,15.727 12.722,15.727ZM12.53,11.234C12.342,11.234 12.187,11.33 12.065,11.522C11.943,11.711 11.872,12.006 11.853,12.407H13.187C13.18,12.022 13.119,11.73 13.004,11.532C12.889,11.333 12.731,11.234 12.53,11.234Z" fill="#808AA6"/>
    <path d="M17.233,15.633H15.919V10.363H17.233V15.633ZM15.864,8.987C15.864,8.779 15.927,8.615 16.052,8.495C16.181,8.372 16.358,8.31 16.586,8.31C16.8,8.31 16.971,8.372 17.1,8.495C17.228,8.615 17.292,8.779 17.292,8.987C17.292,9.201 17.226,9.368 17.095,9.488C16.963,9.605 16.793,9.663 16.586,9.663C16.368,9.663 16.194,9.605 16.062,9.488C15.93,9.368 15.864,9.201 15.864,8.987Z" fill="#808AA6"/>
    <path d="M9.022,15.633H7.708V8.272H9.022V15.633Z" fill="#000000" fill-opacity="0.0" stroke="#808AA6" stroke-linejoin="round" stroke-width="0.25"/>
    <path d="M12.722,15.727C12.034,15.727 11.49,15.494 11.092,15.027C10.696,14.557 10.499,13.894 10.499,13.036C10.499,12.165 10.678,11.486 11.037,10.997C11.396,10.508 11.897,10.264 12.54,10.264C13.139,10.264 13.612,10.474 13.958,10.893C14.304,11.309 14.477,11.894 14.477,12.648V13.32H11.833C11.843,13.79 11.943,14.139 12.134,14.37C12.325,14.597 12.589,14.71 12.925,14.71C13.353,14.71 13.792,14.583 14.24,14.327V15.363C13.818,15.606 13.312,15.727 12.722,15.727ZM12.53,11.234C12.342,11.234 12.187,11.33 12.065,11.522C11.943,11.711 11.872,12.006 11.853,12.407H13.187C13.18,12.022 13.119,11.73 13.004,11.532C12.889,11.333 12.731,11.234 12.53,11.234Z" fill="#000000" fill-opacity="0.0" stroke="#808AA6" stroke-linejoin="round" stroke-width="0.25"/>
    <path d="M17.233,15.633H15.919V10.363H17.233V15.633ZM15.864,8.987C15.864,8.779 15.927,8.615 16.052,8.495C16.181,8.372 16.358,8.31 16.586,8.31C16.8,8.31 16.971,8.372 17.1,8.495C17.228,8.615 17.292,8.779 17.292,8.987C17.292,9.201 17.226,9.368 17.095,9.488C16.963,9.605 16.793,9.663 16.586,9.663C16.368,9.663 16.194,9.605 16.062,9.488C15.93,9.368 15.864,9.201 15.864,8.987Z" fill="#000000" fill-opacity="0.0" stroke="#808AA6" stroke-linejoin="round" stroke-width="0.25"/>
</svg>
