<?xml version="1.0" encoding="UTF-8" standalone="no"?>
<svg xmlns:android="http://schemas.android.com/apk/res/android" height="24" width="24" xmlns="http://www.w3.org/2000/svg">
    <path d="M12,3.526C12.292,3.526 12.559,3.692 12.688,3.954L14.881,8.397L19.785,9.113C20.074,9.156 20.314,9.358 20.404,9.636C20.494,9.914 20.419,10.219 20.209,10.422L16.662,13.878L17.499,18.76C17.548,19.048 17.43,19.339 17.194,19.511C16.957,19.682 16.644,19.705 16.385,19.569L12,17.263L7.615,19.569C7.356,19.705 7.043,19.682 6.806,19.511C6.57,19.339 6.452,19.048 6.501,18.76L7.338,13.878L3.79,10.422C3.581,10.219 3.506,9.914 3.596,9.636C3.686,9.358 3.926,9.156 4.215,9.113L9.119,8.397L11.312,3.954C11.441,3.692 11.708,3.526 12,3.526Z" fill="#FF5823" fill-rule="evenOdd"/>
</svg>
