<?xml version="1.0" encoding="UTF-8" standalone="no"?>
<svg xmlns:android="http://schemas.android.com/apk/res/android" height="18" width="69" xmlns="http://www.w3.org/2000/svg">
    <path d="M7.8629,4.9888C7.8629,4.9888 7.1047,9.395 6.9028,11.8626C6.8221,12.8486 8.3618,13.1859 8.8489,13.2343C10.0331,13.352 11.0599,12.5473 11.0599,12.5473C11.0599,12.5473 10.3954,12.661 9.6805,12.5755C8.8364,12.3565 8.8818,11.8592 8.829,11.7047C8.7797,11.0563 8.9167,10.1971 9.072,9.4393C9.2275,8.6814 9.4014,8.0249 9.4014,8.0249L11.086,8.0119L11.3091,6.912L9.6916,6.872L9.9675,5.0445L7.8629,4.9888Z" fill="#F40814" stroke="#F30000" stroke-width="1.22382"/>
    <path d="M9.0143,1.0279C6.873,1.0653 4.8337,1.9373 3.3418,3.4535C1.8499,4.9697 1.0267,7.0068 1.052,9.1199C1.0773,11.2329 1.949,13.2503 3.4767,14.7313C5.0045,16.2123 7.0641,17.0365 9.2058,17.0241C11.3474,17.0116 13.3971,16.1634 14.907,14.6647C16.4169,13.166 17.2645,11.1386 17.2644,9.0254L17.2621,8.8366C17.2116,6.7239 16.3158,4.7169 14.7704,3.2538C13.2251,1.7907 11.1557,0.9905 9.0144,1.0279H9.0143ZM9.0411,2.518C10.7835,2.4876 12.4673,3.1387 13.7247,4.3292C14.9822,5.5196 15.7111,7.1527 15.7522,8.8718L15.754,9.0254C15.7541,10.7449 15.0645,12.3945 13.8359,13.614C12.6073,14.8334 10.9395,15.5236 9.1969,15.5337C7.4543,15.5439 5.7784,14.8732 4.5353,13.6682C3.2922,12.4631 2.5829,10.8216 2.5623,9.1023C2.5417,7.3829 3.2116,5.7253 4.4255,4.4917C5.6394,3.258 7.2988,2.5485 9.0411,2.518H9.0411Z" fill="#F70000" fill-opacity="0.745" stroke="#F30000" stroke-linecap="square" stroke-linejoin="round" stroke-width="1.58729"/>
    <path d="M21.1964,5.0517C21.1964,5.0517 20.4382,9.458 20.2363,11.9255C20.1556,12.9116 21.6953,13.2489 22.1824,13.2973C23.3667,13.4149 24.3934,12.6102 24.3934,12.6102C24.3934,12.6102 23.729,12.724 23.0141,12.6385C22.17,12.4194 22.2153,11.9222 22.1625,11.7676C22.1132,11.1193 22.2502,10.26 22.4056,9.5022C22.561,8.7443 22.7348,8.0878 22.7348,8.0878L24.4196,8.0748L24.6426,6.975L23.0251,6.935L23.301,5.1074L21.1964,5.0517ZM26.5746,4.4909L25.0572,13.1305L27.125,13.1183C27.1619,13.1181 27.4819,10.5596 27.7395,9.2493C27.8394,8.7406 27.9219,8.341 27.9219,8.341C27.9219,8.341 28.5468,7.9221 29.07,7.7358C31.225,6.9688 31.1251,8.778 31.1251,8.778L30.3989,13.1305H32.4666L33.201,8.3577C33.201,8.3577 33.2829,6.6493 30.9171,6.6957C29.4083,6.807 28.2861,7.5133 28.0437,7.5068C28.1581,6.5106 28.2308,6.337 28.5283,4.4746L26.5746,4.4909ZM38.3679,9.8793L38.4591,9.2444C38.4591,9.2444 35.4885,8.6878 34.239,10.0531C32.9894,11.4184 33.6969,12.4383 33.9805,12.7006C34.264,12.9629 34.8174,13.3625 35.9744,13.2957C37.1313,13.2289 38.8052,12.4213 38.8052,12.4213L38.7068,13.1305H40.5776L41.3284,8.4743C41.3284,8.4743 41.1566,6.5177 38.3375,6.6162C35.5185,6.7147 34.6697,8.0736 34.6697,8.0736L34.9405,8.3286C34.9405,8.3286 36.5447,7.1238 37.796,7.3449C39.0472,7.566 39.4035,8.4361 39.4035,8.4361L38.9364,11.7605C38.9364,11.7605 37.4892,12.5995 36.5589,12.3156C35.6285,12.0315 35.3056,11.0465 35.9641,10.3815C36.6226,9.7164 38.3679,9.8793 38.3679,9.8793ZM41.9807,6.8616L43.8639,13.1305H44.5654L47.4701,9.4581L48.9717,13.1305H49.7102L52.9671,8.0203L54.5088,8.0381L54.6723,6.8616H52.2319L49.8473,10.6715L48.4272,6.8616H47.7666C47.7666,6.8616 44.9837,10.8009 45.0011,10.7322C45.0185,10.6635 43.9363,6.8616 43.9363,6.8616H41.9807Z" fill="#0951A0"/>
    <path d="M54.8099,4.9783C54.8099,4.9783 54.0518,9.3846 53.8498,11.8521C53.7692,12.8382 55.3088,13.1755 55.7959,13.2238C56.9802,13.3415 58.007,12.5368 58.007,12.5368C58.007,12.5368 57.3425,12.6506 56.6276,12.5651C55.7835,12.346 55.8288,11.8488 55.7761,11.6942C55.7268,11.0458 55.8637,10.1866 56.0191,9.4288C56.1745,8.6709 56.3484,8.0144 56.3484,8.0144L58.7032,8.0272L58.8131,6.8615H56.6387L56.9146,5.034L54.8099,4.9783ZM58.4806,10.0692C58.3556,13.5271 61.5878,13.9263 64.3814,13.1304C65.5905,12.7348 66.4122,11.4619 66.4122,11.4619L66.0307,11.3526C66.0307,11.3526 65.183,12.1689 64.0983,12.4334C61.8578,12.956 60.1813,11.7212 60.6151,9.5187C61.1104,7.914 63.0074,7.0344 64.4921,7.8792C65.1398,8.2677 64.8983,9.2151 64.8983,9.2151L61.5998,9.2637C61.5998,9.2637 61.2305,10.0653 61.4521,9.9924C61.6736,9.9195 66.9372,10.0167 66.9372,10.0167C66.9372,10.0167 67,8.9093 66.7716,8.2798C66.5433,7.6504 65.8288,7.1862 65.0838,6.8615C61.1276,5.7782 58.9252,7.8147 58.4806,10.0692Z" fill="#0951A0"/>
    <path d="M67.3979,5.4663H67.0551V6.417H66.9152V5.4663H66.5732V5.3506H67.3979V5.4663Z" fill="#0951A0"/>
    <path d="M67.7377,5.3506L68.0863,6.2207L68.435,5.3506H68.6173V6.417H68.4767V6.0017L68.4899,5.5535L68.1398,6.417H68.0321L67.6828,5.5557L67.6967,6.0017V6.417H67.5561V5.3506H67.7377Z" fill="#0951A0"/>
</svg>
