<?xml version="1.0" encoding="UTF-8" standalone="no"?>
<svg xmlns:android="http://schemas.android.com/apk/res/android" height="32" width="32" xmlns="http://www.w3.org/2000/svg">
    <path d="M11.1769,26.8813C20.989,26.8813 26.3549,18.8485 26.3549,11.8827C26.3549,11.6546 26.3502,11.4275 26.3398,11.2014C27.3814,10.4573 28.2867,9.5287 29.0008,8.4717C28.0449,8.8915 27.0163,9.1741 25.9373,9.3016C27.0387,8.649 27.8842,7.6166 28.2831,6.3859C27.2524,6.9897 26.111,7.4286 24.8957,7.6655C23.9223,6.6409 22.5364,6 21.0019,6C18.056,6 15.6671,8.3608 15.6671,11.2707C15.6671,11.6844 15.7139,12.0867 15.8054,12.4727C11.3718,12.2522 7.4404,10.1546 4.8093,6.965C4.3512,7.7441 4.087,8.649 4.087,9.6145C4.087,11.4434 5.0288,13.0579 6.4609,14.0025C5.5857,13.9757 4.7636,13.7383 4.045,13.3432C4.0442,13.3653 4.0442,13.3869 4.0442,13.4105C4.0442,15.9634 5.883,18.0949 8.3239,18.5779C7.8756,18.6987 7.404,18.7634 6.9173,18.7634C6.574,18.7634 6.2397,18.73 5.9147,18.6684C6.5938,20.7629 8.5631,22.287 10.8979,22.3296C9.0721,23.7438 6.7722,24.5861 4.2724,24.5861C3.8424,24.5861 3.4176,24.5619 3,24.5131C5.3609,26.0085 8.1642,26.881 11.1772,26.881" fill="#1DA1F2"/>
</svg>
