<?xml version="1.0" encoding="UTF-8" standalone="no"?>
<svg xmlns:android="http://schemas.android.com/apk/res/android" height="24" width="24" xmlns="http://www.w3.org/2000/svg">
    <path d="M15,18.56C15.2,18.56 15.39,18.48 15.53,18.33C15.67,18.18 15.75,17.99 15.75,17.78V17C15.75,16.79 15.67,16.6 15.53,16.45C15.39,16.31 15.2,16.23 15,16.23C14.8,16.23 14.61,16.31 14.47,16.46C14.33,16.61 14.25,16.8 14.25,17.01L10.2,16.97C9.94,16.97 9.69,16.88 9.49,16.72C9.28,16.56 9.13,16.34 9.06,16.08C8.98,15.82 8.99,15.55 9.07,15.29C9.16,15.04 9.32,14.82 9.53,14.67L9.6,14.63H17.25C17.45,14.63 17.64,14.55 17.78,14.4C17.92,14.25 18,14.06 18,13.85C18,13.64 17.92,13.45 17.78,13.3C17.64,13.15 17.45,13.07 17.25,13.07H11.85L14.1,11.52H17.25C17.45,11.52 17.64,11.44 17.78,11.29C17.92,11.14 18,10.94 18,10.74C18,10.53 17.92,10.34 17.78,10.19C17.64,10.04 17.45,9.96 17.25,9.96H15.52C15.67,9.62 15.75,9.25 15.75,8.88C15.75,8.14 15.46,7.42 14.96,6.89C14.45,6.36 13.76,6.07 13.05,6.07L8.25,6C8.05,6 7.86,6.08 7.72,6.23C7.58,6.38 7.5,6.57 7.5,6.78V7.56C7.5,7.77 7.58,7.96 7.72,8.11C7.86,8.26 8.05,8.34 8.25,8.34C8.45,8.34 8.64,8.26 8.78,8.11C8.92,7.96 9,7.76 9,7.56L13.04,7.63C13.3,7.63 13.55,7.72 13.75,7.88C13.96,8.04 14.11,8.26 14.18,8.52C14.26,8.78 14.25,9.05 14.16,9.3C14.09,9.55 13.93,9.76 13.72,9.91L13.65,9.96H6.75C6.55,9.96 6.36,10.04 6.22,10.19C6.08,10.33 6,10.53 6,10.74C6,10.95 6.08,11.14 6.22,11.29C6.36,11.44 6.55,11.52 6.75,11.52H11.4L9.15,13.07H6.75C6.55,13.07 6.36,13.15 6.22,13.3C6.08,13.45 6,13.64 6,13.85C6,14.06 6.08,14.25 6.22,14.4C6.36,14.55 6.55,14.63 6.75,14.63H7.73C7.58,14.97 7.5,15.34 7.5,15.71C7.5,16.45 7.79,17.17 8.29,17.7C8.8,18.23 9.49,18.52 10.2,18.52L15,18.56Z" fill="#808AA6"/>
</svg>
